ISO-10303-21;
HEADER;
/* Generated by software containing ST-Developer
 * from STEP Tools, Inc. (www.steptools.com) 
 */

FILE_DESCRIPTION(
/* description */ (''),
/* implementation_level */ '2;1');

FILE_NAME(
/* name */ 'main_enclosure.step',
/* time_stamp */ '2026-08-30T23:41:31+03:00',
/* author */ (''),
/* organization */ (''),
/* preprocessor_version */ 'ST-DEVELOPER v20.1',
/* originating_system */ 'Autodesk Translation Framework v15.8.0.0',
/* authorisation */ '');

FILE_SCHEMA (('AUTOMOTIVE_DESIGN { 1 0 10303 214 3 1 1 }'));
ENDSEC;

DATA;
#10=MECHANICAL_DESIGN_GEOMETRIC_PRESENTATION_REPRESENTATION('',(#13),#1979);
#11=SHAPE_REPRESENTATION_RELATIONSHIP('SRR','None',#1985,#12);
#12=ADVANCED_BREP_SHAPE_REPRESENTATION('',(#14),#1978);
#13=STYLED_ITEM('',(#1995),#14);
#14=MANIFOLD_SOLID_BREP('Body3',#1187);
#15=CONICAL_SURFACE('',#1214,2.725,0.785398163397448);
#16=CONICAL_SURFACE('',#1218,2.725,0.785398163397448);
#17=CONICAL_SURFACE('',#1222,2.725,0.785398163397448);
#18=CONICAL_SURFACE('',#1226,2.725,0.785398163397448);
#19=CONICAL_SURFACE('',#1255,2.55,0.785398163397448);
#20=CONICAL_SURFACE('',#1261,2.55,0.785398163397448);
#21=CONICAL_SURFACE('',#1267,2.55,0.785398163397451);
#22=CONICAL_SURFACE('',#1273,2.55,0.785398163397451);
#23=FACE_BOUND('',#154,.T.);
#24=FACE_BOUND('',#156,.T.);
#25=FACE_BOUND('',#157,.T.);
#26=FACE_BOUND('',#158,.T.);
#27=FACE_BOUND('',#159,.T.);
#28=FACE_BOUND('',#160,.T.);
#29=FACE_BOUND('',#185,.T.);
#30=FACE_BOUND('',#195,.T.);
#31=FACE_BOUND('',#199,.T.);
#32=FACE_BOUND('',#203,.T.);
#33=FACE_BOUND('',#224,.T.);
#34=PLANE('',#1192);
#35=PLANE('',#1196);
#36=PLANE('',#1201);
#37=PLANE('',#1202);
#38=PLANE('',#1213);
#39=PLANE('',#1230);
#40=PLANE('',#1231);
#41=PLANE('',#1232);
#42=PLANE('',#1233);
#43=PLANE('',#1234);
#44=PLANE('',#1235);
#45=PLANE('',#1236);
#46=PLANE('',#1237);
#47=PLANE('',#1238);
#48=PLANE('',#1239);
#49=PLANE('',#1240);
#50=PLANE('',#1241);
#51=PLANE('',#1244);
#52=PLANE('',#1246);
#53=PLANE('',#1249);
#54=PLANE('',#1252);
#55=PLANE('',#1260);
#56=PLANE('',#1266);
#57=PLANE('',#1272);
#58=PLANE('',#1277);
#59=PLANE('',#1278);
#60=PLANE('',#1279);
#61=PLANE('',#1280);
#62=PLANE('',#1281);
#63=PLANE('',#1282);
#64=PLANE('',#1283);
#65=PLANE('',#1284);
#66=PLANE('',#1285);
#67=PLANE('',#1286);
#68=PLANE('',#1287);
#69=PLANE('',#1288);
#70=PLANE('',#1289);
#71=PLANE('',#1290);
#72=PLANE('',#1291);
#73=PLANE('',#1292);
#74=PLANE('',#1293);
#75=PLANE('',#1294);
#76=PLANE('',#1295);
#77=PLANE('',#1296);
#78=PLANE('',#1297);
#79=FACE_OUTER_BOUND('',#148,.T.);
#80=FACE_OUTER_BOUND('',#149,.T.);
#81=FACE_OUTER_BOUND('',#150,.T.);
#82=FACE_OUTER_BOUND('',#151,.T.);
#83=FACE_OUTER_BOUND('',#152,.T.);
#84=FACE_OUTER_BOUND('',#153,.T.);
#85=FACE_OUTER_BOUND('',#155,.T.);
#86=FACE_OUTER_BOUND('',#161,.T.);
#87=FACE_OUTER_BOUND('',#162,.T.);
#88=FACE_OUTER_BOUND('',#163,.T.);
#89=FACE_OUTER_BOUND('',#164,.T.);
#90=FACE_OUTER_BOUND('',#165,.T.);
#91=FACE_OUTER_BOUND('',#166,.T.);
#92=FACE_OUTER_BOUND('',#167,.T.);
#93=FACE_OUTER_BOUND('',#168,.T.);
#94=FACE_OUTER_BOUND('',#169,.T.);
#95=FACE_OUTER_BOUND('',#170,.T.);
#96=FACE_OUTER_BOUND('',#171,.T.);
#97=FACE_OUTER_BOUND('',#172,.T.);
#98=FACE_OUTER_BOUND('',#173,.T.);
#99=FACE_OUTER_BOUND('',#174,.T.);
#100=FACE_OUTER_BOUND('',#175,.T.);
#101=FACE_OUTER_BOUND('',#176,.T.);
#102=FACE_OUTER_BOUND('',#177,.T.);
#103=FACE_OUTER_BOUND('',#178,.T.);
#104=FACE_OUTER_BOUND('',#179,.T.);
#105=FACE_OUTER_BOUND('',#180,.T.);
#106=FACE_OUTER_BOUND('',#181,.T.);
#107=FACE_OUTER_BOUND('',#182,.T.);
#108=FACE_OUTER_BOUND('',#183,.T.);
#109=FACE_OUTER_BOUND('',#184,.T.);
#110=FACE_OUTER_BOUND('',#186,.T.);
#111=FACE_OUTER_BOUND('',#187,.T.);
#112=FACE_OUTER_BOUND('',#188,.T.);
#113=FACE_OUTER_BOUND('',#189,.T.);
#114=FACE_OUTER_BOUND('',#190,.T.);
#115=FACE_OUTER_BOUND('',#191,.T.);
#116=FACE_OUTER_BOUND('',#192,.T.);
#117=FACE_OUTER_BOUND('',#193,.T.);
#118=FACE_OUTER_BOUND('',#194,.T.);
#119=FACE_OUTER_BOUND('',#196,.T.);
#120=FACE_OUTER_BOUND('',#197,.T.);
#121=FACE_OUTER_BOUND('',#198,.T.);
#122=FACE_OUTER_BOUND('',#200,.T.);
#123=FACE_OUTER_BOUND('',#201,.T.);
#124=FACE_OUTER_BOUND('',#202,.T.);
#125=FACE_OUTER_BOUND('',#204,.T.);
#126=FACE_OUTER_BOUND('',#205,.T.);
#127=FACE_OUTER_BOUND('',#206,.T.);
#128=FACE_OUTER_BOUND('',#207,.T.);
#129=FACE_OUTER_BOUND('',#208,.T.);
#130=FACE_OUTER_BOUND('',#209,.T.);
#131=FACE_OUTER_BOUND('',#210,.T.);
#132=FACE_OUTER_BOUND('',#211,.T.);
#133=FACE_OUTER_BOUND('',#212,.T.);
#134=FACE_OUTER_BOUND('',#213,.T.);
#135=FACE_OUTER_BOUND('',#214,.T.);
#136=FACE_OUTER_BOUND('',#215,.T.);
#137=FACE_OUTER_BOUND('',#216,.T.);
#138=FACE_OUTER_BOUND('',#217,.T.);
#139=FACE_OUTER_BOUND('',#218,.T.);
#140=FACE_OUTER_BOUND('',#219,.T.);
#141=FACE_OUTER_BOUND('',#220,.T.);
#142=FACE_OUTER_BOUND('',#221,.T.);
#143=FACE_OUTER_BOUND('',#222,.T.);
#144=FACE_OUTER_BOUND('',#223,.T.);
#145=FACE_OUTER_BOUND('',#225,.T.);
#146=FACE_OUTER_BOUND('',#226,.T.);
#147=FACE_OUTER_BOUND('',#227,.T.);
#148=EDGE_LOOP('',(#778,#779,#780,#781));
#149=EDGE_LOOP('',(#782,#783,#784,#785,#786,#787,#788,#789));
#150=EDGE_LOOP('',(#790,#791,#792,#793));
#151=EDGE_LOOP('',(#794,#795,#796,#797));
#152=EDGE_LOOP('',(#798,#799,#800,#801));
#153=EDGE_LOOP('',(#802,#803,#804,#805));
#154=EDGE_LOOP('',(#806,#807,#808,#809));
#155=EDGE_LOOP('',(#810,#811,#812,#813,#814,#815,#816,#817));
#156=EDGE_LOOP('',(#818));
#157=EDGE_LOOP('',(#819));
#158=EDGE_LOOP('',(#820,#821,#822,#823,#824,#825,#826,#827,#828,#829,#830,
#831,#832,#833));
#159=EDGE_LOOP('',(#834));
#160=EDGE_LOOP('',(#835));
#161=EDGE_LOOP('',(#836,#837,#838,#839));
#162=EDGE_LOOP('',(#840,#841,#842,#843));
#163=EDGE_LOOP('',(#844,#845,#846,#847));
#164=EDGE_LOOP('',(#848,#849,#850,#851));
#165=EDGE_LOOP('',(#852,#853,#854,#855));
#166=EDGE_LOOP('',(#856,#857,#858,#859));
#167=EDGE_LOOP('',(#860,#861,#862,#863));
#168=EDGE_LOOP('',(#864,#865,#866,#867));
#169=EDGE_LOOP('',(#868,#869,#870,#871));
#170=EDGE_LOOP('',(#872,#873,#874,#875));
#171=EDGE_LOOP('',(#876));
#172=EDGE_LOOP('',(#877));
#173=EDGE_LOOP('',(#878));
#174=EDGE_LOOP('',(#879));
#175=EDGE_LOOP('',(#880,#881,#882,#883));
#176=EDGE_LOOP('',(#884,#885,#886,#887));
#177=EDGE_LOOP('',(#888,#889,#890,#891));
#178=EDGE_LOOP('',(#892,#893,#894,#895));
#179=EDGE_LOOP('',(#896,#897,#898,#899));
#180=EDGE_LOOP('',(#900,#901,#902,#903));
#181=EDGE_LOOP('',(#904,#905,#906,#907));
#182=EDGE_LOOP('',(#908,#909,#910,#911));
#183=EDGE_LOOP('',(#912,#913,#914,#915));
#184=EDGE_LOOP('',(#916,#917,#918,#919,#920));
#185=EDGE_LOOP('',(#921));
#186=EDGE_LOOP('',(#922,#923,#924,#925,#926,#927,#928,#929));
#187=EDGE_LOOP('',(#930,#931,#932,#933));
#188=EDGE_LOOP('',(#934,#935,#936,#937,#938,#939,#940,#941));
#189=EDGE_LOOP('',(#942,#943,#944,#945));
#190=EDGE_LOOP('',(#946,#947,#948,#949,#950,#951,#952,#953,#954,#955,#956,
#957));
#191=EDGE_LOOP('',(#958,#959,#960,#961));
#192=EDGE_LOOP('',(#962,#963,#964,#965));
#193=EDGE_LOOP('',(#966,#967,#968,#969));
#194=EDGE_LOOP('',(#970,#971,#972,#973,#974));
#195=EDGE_LOOP('',(#975));
#196=EDGE_LOOP('',(#976,#977,#978,#979));
#197=EDGE_LOOP('',(#980,#981,#982,#983));
#198=EDGE_LOOP('',(#984,#985,#986,#987,#988));
#199=EDGE_LOOP('',(#989));
#200=EDGE_LOOP('',(#990,#991,#992,#993));
#201=EDGE_LOOP('',(#994,#995,#996,#997));
#202=EDGE_LOOP('',(#998,#999,#1000,#1001,#1002));
#203=EDGE_LOOP('',(#1003));
#204=EDGE_LOOP('',(#1004,#1005,#1006,#1007));
#205=EDGE_LOOP('',(#1008,#1009,#1010,#1011));
#206=EDGE_LOOP('',(#1012));
#207=EDGE_LOOP('',(#1013));
#208=EDGE_LOOP('',(#1014));
#209=EDGE_LOOP('',(#1015));
#210=EDGE_LOOP('',(#1016,#1017,#1018,#1019));
#211=EDGE_LOOP('',(#1020,#1021,#1022,#1023));
#212=EDGE_LOOP('',(#1024,#1025,#1026,#1027,#1028,#1029,#1030,#1031,#1032,
#1033,#1034,#1035));
#213=EDGE_LOOP('',(#1036,#1037,#1038,#1039));
#214=EDGE_LOOP('',(#1040,#1041,#1042,#1043));
#215=EDGE_LOOP('',(#1044,#1045,#1046,#1047));
#216=EDGE_LOOP('',(#1048,#1049,#1050,#1051));
#217=EDGE_LOOP('',(#1052,#1053,#1054,#1055));
#218=EDGE_LOOP('',(#1056,#1057,#1058,#1059));
#219=EDGE_LOOP('',(#1060,#1061,#1062,#1063));
#220=EDGE_LOOP('',(#1064,#1065,#1066,#1067));
#221=EDGE_LOOP('',(#1068,#1069,#1070,#1071,#1072,#1073));
#222=EDGE_LOOP('',(#1074,#1075,#1076,#1077));
#223=EDGE_LOOP('',(#1078,#1079,#1080,#1081));
#224=EDGE_LOOP('',(#1082,#1083,#1084,#1085));
#225=EDGE_LOOP('',(#1086,#1087,#1088,#1089));
#226=EDGE_LOOP('',(#1090,#1091,#1092,#1093,#1094,#1095,#1096,#1097));
#227=EDGE_LOOP('',(#1098,#1099,#1100,#1101));
#228=LINE('',#1646,#350);
#229=LINE('',#1649,#351);
#230=LINE('',#1652,#352);
#231=LINE('',#1656,#353);
#232=LINE('',#1660,#354);
#233=LINE('',#1663,#355);
#234=LINE('',#1666,#356);
#235=LINE('',#1667,#357);
#236=LINE('',#1671,#358);
#237=LINE('',#1676,#359);
#238=LINE('',#1677,#360);
#239=LINE('',#1680,#361);
#240=LINE('',#1681,#362);
#241=LINE('',#1684,#363);
#242=LINE('',#1686,#364);
#243=LINE('',#1688,#365);
#244=LINE('',#1689,#366);
#245=LINE('',#1692,#367);
#246=LINE('',#1694,#368);
#247=LINE('',#1701,#369);
#248=LINE('',#1703,#370);
#249=LINE('',#1707,#371);
#250=LINE('',#1711,#372);
#251=LINE('',#1715,#373);
#252=LINE('',#1719,#374);
#253=LINE('',#1721,#375);
#254=LINE('',#1723,#376);
#255=LINE('',#1725,#377);
#256=LINE('',#1726,#378);
#257=LINE('',#1732,#379);
#258=LINE('',#1736,#380);
#259=LINE('',#1740,#381);
#260=LINE('',#1744,#382);
#261=LINE('',#1748,#383);
#262=LINE('',#1752,#384);
#263=LINE('',#1756,#385);
#264=LINE('',#1760,#386);
#265=LINE('',#1764,#387);
#266=LINE('',#1772,#388);
#267=LINE('',#1774,#389);
#268=LINE('',#1775,#390);
#269=LINE('',#1779,#391);
#270=LINE('',#1780,#392);
#271=LINE('',#1781,#393);
#272=LINE('',#1783,#394);
#273=LINE('',#1785,#395);
#274=LINE('',#1788,#396);
#275=LINE('',#1790,#397);
#276=LINE('',#1791,#398);
#277=LINE('',#1794,#399);
#278=LINE('',#1795,#400);
#279=LINE('',#1798,#401);
#280=LINE('',#1799,#402);
#281=LINE('',#1801,#403);
#282=LINE('',#1806,#404);
#283=LINE('',#1807,#405);
#284=LINE('',#1810,#406);
#285=LINE('',#1812,#407);
#286=LINE('',#1814,#408);
#287=LINE('',#1815,#409);
#288=LINE('',#1820,#410);
#289=LINE('',#1822,#411);
#290=LINE('',#1824,#412);
#291=LINE('',#1826,#413);
#292=LINE('',#1827,#414);
#293=LINE('',#1832,#415);
#294=LINE('',#1833,#416);
#295=LINE('',#1836,#417);
#296=LINE('',#1838,#418);
#297=LINE('',#1840,#419);
#298=LINE('',#1842,#420);
#299=LINE('',#1844,#421);
#300=LINE('',#1845,#422);
#301=LINE('',#1849,#423);
#302=LINE('',#1852,#424);
#303=LINE('',#1854,#425);
#304=LINE('',#1856,#426);
#305=LINE('',#1858,#427);
#306=LINE('',#1860,#428);
#307=LINE('',#1861,#429);
#308=LINE('',#1863,#430);
#309=LINE('',#1865,#431);
#310=LINE('',#1866,#432);
#311=LINE('',#1873,#433);
#312=LINE('',#1877,#434);
#313=LINE('',#1881,#435);
#314=LINE('',#1882,#436);
#315=LINE('',#1887,#437);
#316=LINE('',#1891,#438);
#317=LINE('',#1895,#439);
#318=LINE('',#1897,#440);
#319=LINE('',#1898,#441);
#320=LINE('',#1903,#442);
#321=LINE('',#1907,#443);
#322=LINE('',#1911,#444);
#323=LINE('',#1912,#445);
#324=LINE('',#1915,#446);
#325=LINE('',#1919,#447);
#326=LINE('',#1927,#448);
#327=LINE('',#1928,#449);
#328=LINE('',#1931,#450);
#329=LINE('',#1932,#451);
#330=LINE('',#1935,#452);
#331=LINE('',#1937,#453);
#332=LINE('',#1938,#454);
#333=LINE('',#1940,#455);
#334=LINE('',#1941,#456);
#335=LINE('',#1943,#457);
#336=LINE('',#1944,#458);
#337=LINE('',#1946,#459);
#338=LINE('',#1949,#460);
#339=LINE('',#1950,#461);
#340=LINE('',#1953,#462);
#341=LINE('',#1957,#463);
#342=LINE('',#1959,#464);
#343=LINE('',#1960,#465);
#344=LINE('',#1962,#466);
#345=LINE('',#1965,#467);
#346=LINE('',#1967,#468);
#347=LINE('',#1968,#469);
#348=LINE('',#1970,#470);
#349=LINE('',#1972,#471);
#350=VECTOR('',#1304,10.);
#351=VECTOR('',#1307,10.);
#352=VECTOR('',#1310,10.);
#353=VECTOR('',#1313,10.);
#354=VECTOR('',#1316,10.);
#355=VECTOR('',#1319,10.);
#356=VECTOR('',#1322,10.);
#357=VECTOR('',#1323,10.);
#358=VECTOR('',#1328,10.);
#359=VECTOR('',#1333,10.);
#360=VECTOR('',#1334,10.);
#361=VECTOR('',#1337,10.);
#362=VECTOR('',#1338,10.);
#363=VECTOR('',#1339,10.);
#364=VECTOR('',#1340,10.);
#365=VECTOR('',#1341,10.);
#366=VECTOR('',#1342,10.);
#367=VECTOR('',#1345,10.);
#368=VECTOR('',#1348,10.);
#369=VECTOR('',#1353,10.);
#370=VECTOR('',#1354,10.);
#371=VECTOR('',#1357,10.);
#372=VECTOR('',#1360,10.);
#373=VECTOR('',#1363,10.);
#374=VECTOR('',#1366,10.);
#375=VECTOR('',#1367,10.);
#376=VECTOR('',#1368,10.);
#377=VECTOR('',#1369,10.);
#378=VECTOR('',#1370,10.);
#379=VECTOR('',#1377,10.);
#380=VECTOR('',#1382,2.725);
#381=VECTOR('',#1387,2.35);
#382=VECTOR('',#1392,2.725);
#383=VECTOR('',#1397,2.34999999999999);
#384=VECTOR('',#1402,2.725);
#385=VECTOR('',#1407,2.34999999999999);
#386=VECTOR('',#1412,2.725);
#387=VECTOR('',#1417,2.35);
#388=VECTOR('',#1430,10.);
#389=VECTOR('',#1431,10.);
#390=VECTOR('',#1432,10.);
#391=VECTOR('',#1435,10.);
#392=VECTOR('',#1436,10.);
#393=VECTOR('',#1437,10.);
#394=VECTOR('',#1440,10.);
#395=VECTOR('',#1443,10.);
#396=VECTOR('',#1446,10.);
#397=VECTOR('',#1447,10.);
#398=VECTOR('',#1448,10.);
#399=VECTOR('',#1451,10.);
#400=VECTOR('',#1452,10.);
#401=VECTOR('',#1455,10.);
#402=VECTOR('',#1456,10.);
#403=VECTOR('',#1459,10.);
#404=VECTOR('',#1464,10.);
#405=VECTOR('',#1465,10.);
#406=VECTOR('',#1468,10.);
#407=VECTOR('',#1469,10.);
#408=VECTOR('',#1470,10.);
#409=VECTOR('',#1471,10.);
#410=VECTOR('',#1476,10.);
#411=VECTOR('',#1477,10.);
#412=VECTOR('',#1478,10.);
#413=VECTOR('',#1479,10.);
#414=VECTOR('',#1480,10.);
#415=VECTOR('',#1485,10.);
#416=VECTOR('',#1486,10.);
#417=VECTOR('',#1489,10.);
#418=VECTOR('',#1490,10.);
#419=VECTOR('',#1491,10.);
#420=VECTOR('',#1492,10.);
#421=VECTOR('',#1493,10.);
#422=VECTOR('',#1494,10.);
#423=VECTOR('',#1499,10.);
#424=VECTOR('',#1502,10.);
#425=VECTOR('',#1503,10.);
#426=VECTOR('',#1504,10.);
#427=VECTOR('',#1505,10.);
#428=VECTOR('',#1506,10.);
#429=VECTOR('',#1507,10.);
#430=VECTOR('',#1508,10.);
#431=VECTOR('',#1509,10.);
#432=VECTOR('',#1510,10.);
#433=VECTOR('',#1519,2.55);
#434=VECTOR('',#1524,2.3);
#435=VECTOR('',#1529,10.);
#436=VECTOR('',#1530,10.);
#437=VECTOR('',#1535,2.55);
#438=VECTOR('',#1540,2.3);
#439=VECTOR('',#1545,10.);
#440=VECTOR('',#1546,10.);
#441=VECTOR('',#1547,10.);
#442=VECTOR('',#1552,2.55);
#443=VECTOR('',#1557,2.3);
#444=VECTOR('',#1562,10.);
#445=VECTOR('',#1563,10.);
#446=VECTOR('',#1566,2.55);
#447=VECTOR('',#1571,2.3);
#448=VECTOR('',#1584,10.);
#449=VECTOR('',#1585,10.);
#450=VECTOR('',#1588,10.);
#451=VECTOR('',#1589,10.);
#452=VECTOR('',#1592,10.);
#453=VECTOR('',#1593,10.);
#454=VECTOR('',#1594,10.);
#455=VECTOR('',#1595,10.);
#456=VECTOR('',#1596,10.);
#457=VECTOR('',#1597,10.);
#458=VECTOR('',#1598,10.);
#459=VECTOR('',#1601,10.);
#460=VECTOR('',#1606,10.);
#461=VECTOR('',#1607,10.);
#462=VECTOR('',#1612,10.);
#463=VECTOR('',#1617,10.);
#464=VECTOR('',#1618,10.);
#465=VECTOR('',#1619,10.);
#466=VECTOR('',#1622,10.);
#467=VECTOR('',#1625,10.);
#468=VECTOR('',#1626,10.);
#469=VECTOR('',#1627,10.);
#470=VECTOR('',#1630,10.);
#471=VECTOR('',#1633,10.);
#472=CIRCLE('',#1190,5.);
#473=CIRCLE('',#1191,5.);
#474=CIRCLE('',#1193,5.);
#475=CIRCLE('',#1194,5.);
#476=CIRCLE('',#1195,5.);
#477=CIRCLE('',#1198,5.);
#478=CIRCLE('',#1200,5.);
#479=CIRCLE('',#1203,5.);
#480=CIRCLE('',#1204,3.1);
#481=CIRCLE('',#1205,3.1);
#482=CIRCLE('',#1206,3.);
#483=CIRCLE('',#1207,3.);
#484=CIRCLE('',#1208,3.);
#485=CIRCLE('',#1209,3.);
#486=CIRCLE('',#1210,3.1);
#487=CIRCLE('',#1211,3.1);
#488=CIRCLE('',#1215,2.35);
#489=CIRCLE('',#1217,2.35);
#490=CIRCLE('',#1219,2.34999999999999);
#491=CIRCLE('',#1221,2.34999999999999);
#492=CIRCLE('',#1223,2.34999999999999);
#493=CIRCLE('',#1225,2.34999999999999);
#494=CIRCLE('',#1227,2.35);
#495=CIRCLE('',#1229,2.35);
#496=CIRCLE('',#1243,3.);
#497=CIRCLE('',#1245,2.8);
#498=CIRCLE('',#1248,3.);
#499=CIRCLE('',#1251,3.);
#500=CIRCLE('',#1254,3.);
#501=CIRCLE('',#1256,2.8);
#502=CIRCLE('',#1257,2.3);
#503=CIRCLE('',#1259,2.3);
#504=CIRCLE('',#1262,2.8);
#505=CIRCLE('',#1263,2.3);
#506=CIRCLE('',#1265,2.3);
#507=CIRCLE('',#1268,2.8);
#508=CIRCLE('',#1269,2.3);
#509=CIRCLE('',#1271,2.3);
#510=CIRCLE('',#1274,2.3);
#511=CIRCLE('',#1276,2.3);
#512=VERTEX_POINT('',#1642);
#513=VERTEX_POINT('',#1643);
#514=VERTEX_POINT('',#1645);
#515=VERTEX_POINT('',#1647);
#516=VERTEX_POINT('',#1651);
#517=VERTEX_POINT('',#1653);
#518=VERTEX_POINT('',#1655);
#519=VERTEX_POINT('',#1657);
#520=VERTEX_POINT('',#1659);
#521=VERTEX_POINT('',#1661);
#522=VERTEX_POINT('',#1665);
#523=VERTEX_POINT('',#1669);
#524=VERTEX_POINT('',#1673);
#525=VERTEX_POINT('',#1674);
#526=VERTEX_POINT('',#1679);
#527=VERTEX_POINT('',#1682);
#528=VERTEX_POINT('',#1683);
#529=VERTEX_POINT('',#1685);
#530=VERTEX_POINT('',#1687);
#531=VERTEX_POINT('',#1691);
#532=VERTEX_POINT('',#1695);
#533=VERTEX_POINT('',#1697);
#534=VERTEX_POINT('',#1699);
#535=VERTEX_POINT('',#1700);
#536=VERTEX_POINT('',#1702);
#537=VERTEX_POINT('',#1704);
#538=VERTEX_POINT('',#1706);
#539=VERTEX_POINT('',#1708);
#540=VERTEX_POINT('',#1710);
#541=VERTEX_POINT('',#1712);
#542=VERTEX_POINT('',#1714);
#543=VERTEX_POINT('',#1716);
#544=VERTEX_POINT('',#1718);
#545=VERTEX_POINT('',#1720);
#546=VERTEX_POINT('',#1722);
#547=VERTEX_POINT('',#1724);
#548=VERTEX_POINT('',#1727);
#549=VERTEX_POINT('',#1729);
#550=VERTEX_POINT('',#1735);
#551=VERTEX_POINT('',#1739);
#552=VERTEX_POINT('',#1743);
#553=VERTEX_POINT('',#1747);
#554=VERTEX_POINT('',#1751);
#555=VERTEX_POINT('',#1755);
#556=VERTEX_POINT('',#1759);
#557=VERTEX_POINT('',#1763);
#558=VERTEX_POINT('',#1771);
#559=VERTEX_POINT('',#1773);
#560=VERTEX_POINT('',#1777);
#561=VERTEX_POINT('',#1778);
#562=VERTEX_POINT('',#1787);
#563=VERTEX_POINT('',#1789);
#564=VERTEX_POINT('',#1793);
#565=VERTEX_POINT('',#1797);
#566=VERTEX_POINT('',#1803);
#567=VERTEX_POINT('',#1804);
#568=VERTEX_POINT('',#1809);
#569=VERTEX_POINT('',#1811);
#570=VERTEX_POINT('',#1813);
#571=VERTEX_POINT('',#1816);
#572=VERTEX_POINT('',#1819);
#573=VERTEX_POINT('',#1821);
#574=VERTEX_POINT('',#1823);
#575=VERTEX_POINT('',#1825);
#576=VERTEX_POINT('',#1829);
#577=VERTEX_POINT('',#1830);
#578=VERTEX_POINT('',#1835);
#579=VERTEX_POINT('',#1837);
#580=VERTEX_POINT('',#1839);
#581=VERTEX_POINT('',#1841);
#582=VERTEX_POINT('',#1843);
#583=VERTEX_POINT('',#1847);
#584=VERTEX_POINT('',#1851);
#585=VERTEX_POINT('',#1853);
#586=VERTEX_POINT('',#1855);
#587=VERTEX_POINT('',#1857);
#588=VERTEX_POINT('',#1859);
#589=VERTEX_POINT('',#1862);
#590=VERTEX_POINT('',#1864);
#591=VERTEX_POINT('',#1870);
#592=VERTEX_POINT('',#1872);
#593=VERTEX_POINT('',#1876);
#594=VERTEX_POINT('',#1880);
#595=VERTEX_POINT('',#1884);
#596=VERTEX_POINT('',#1886);
#597=VERTEX_POINT('',#1890);
#598=VERTEX_POINT('',#1894);
#599=VERTEX_POINT('',#1896);
#600=VERTEX_POINT('',#1900);
#601=VERTEX_POINT('',#1902);
#602=VERTEX_POINT('',#1906);
#603=VERTEX_POINT('',#1910);
#604=VERTEX_POINT('',#1914);
#605=VERTEX_POINT('',#1918);
#606=VERTEX_POINT('',#1926);
#607=VERTEX_POINT('',#1930);
#608=VERTEX_POINT('',#1934);
#609=VERTEX_POINT('',#1936);
#610=VERTEX_POINT('',#1939);
#611=VERTEX_POINT('',#1942);
#612=VERTEX_POINT('',#1956);
#613=VERTEX_POINT('',#1958);
#614=VERTEX_POINT('',#1964);
#615=VERTEX_POINT('',#1966);
#616=EDGE_CURVE('',#512,#513,#472,.T.);
#617=EDGE_CURVE('',#513,#514,#228,.T.);
#618=EDGE_CURVE('',#514,#515,#473,.T.);
#619=EDGE_CURVE('',#515,#512,#229,.T.);
#620=EDGE_CURVE('',#514,#516,#230,.T.);
#621=EDGE_CURVE('',#517,#516,#474,.T.);
#622=EDGE_CURVE('',#517,#518,#231,.T.);
#623=EDGE_CURVE('',#519,#518,#475,.T.);
#624=EDGE_CURVE('',#519,#520,#232,.T.);
#625=EDGE_CURVE('',#521,#520,#476,.T.);
#626=EDGE_CURVE('',#521,#515,#233,.T.);
#627=EDGE_CURVE('',#522,#513,#234,.T.);
#628=EDGE_CURVE('',#516,#522,#235,.T.);
#629=EDGE_CURVE('',#522,#523,#477,.T.);
#630=EDGE_CURVE('',#523,#517,#236,.T.);
#631=EDGE_CURVE('',#524,#525,#478,.T.);
#632=EDGE_CURVE('',#525,#519,#237,.T.);
#633=EDGE_CURVE('',#518,#524,#238,.T.);
#634=EDGE_CURVE('',#526,#525,#239,.T.);
#635=EDGE_CURVE('',#520,#526,#240,.T.);
#636=EDGE_CURVE('',#527,#528,#241,.T.);
#637=EDGE_CURVE('',#529,#527,#242,.T.);
#638=EDGE_CURVE('',#530,#529,#243,.T.);
#639=EDGE_CURVE('',#528,#530,#244,.T.);
#640=EDGE_CURVE('',#512,#531,#245,.T.);
#641=EDGE_CURVE('',#526,#531,#479,.T.);
#642=EDGE_CURVE('',#524,#523,#246,.T.);
#643=EDGE_CURVE('',#532,#532,#480,.T.);
#644=EDGE_CURVE('',#533,#533,#481,.T.);
#645=EDGE_CURVE('',#534,#535,#247,.T.);
#646=EDGE_CURVE('',#535,#536,#248,.T.);
#647=EDGE_CURVE('',#537,#536,#482,.T.);
#648=EDGE_CURVE('',#537,#538,#249,.T.);
#649=EDGE_CURVE('',#539,#538,#483,.T.);
#650=EDGE_CURVE('',#539,#540,#250,.T.);
#651=EDGE_CURVE('',#541,#540,#484,.T.);
#652=EDGE_CURVE('',#541,#542,#251,.T.);
#653=EDGE_CURVE('',#543,#542,#485,.T.);
#654=EDGE_CURVE('',#543,#544,#252,.T.);
#655=EDGE_CURVE('',#544,#545,#253,.T.);
#656=EDGE_CURVE('',#545,#546,#254,.T.);
#657=EDGE_CURVE('',#546,#547,#255,.T.);
#658=EDGE_CURVE('',#547,#534,#256,.T.);
#659=EDGE_CURVE('',#548,#548,#486,.T.);
#660=EDGE_CURVE('',#549,#549,#487,.T.);
#661=EDGE_CURVE('',#531,#521,#257,.T.);
#662=EDGE_CURVE('',#549,#550,#258,.T.);
#663=EDGE_CURVE('',#550,#550,#488,.T.);
#664=EDGE_CURVE('',#550,#551,#259,.T.);
#665=EDGE_CURVE('',#551,#551,#489,.T.);
#666=EDGE_CURVE('',#532,#552,#260,.T.);
#667=EDGE_CURVE('',#552,#552,#490,.T.);
#668=EDGE_CURVE('',#552,#553,#261,.T.);
#669=EDGE_CURVE('',#553,#553,#491,.T.);
#670=EDGE_CURVE('',#548,#554,#262,.T.);
#671=EDGE_CURVE('',#554,#554,#492,.T.);
#672=EDGE_CURVE('',#554,#555,#263,.T.);
#673=EDGE_CURVE('',#555,#555,#493,.T.);
#674=EDGE_CURVE('',#533,#556,#264,.T.);
#675=EDGE_CURVE('',#556,#556,#494,.T.);
#676=EDGE_CURVE('',#556,#557,#265,.T.);
#677=EDGE_CURVE('',#557,#557,#495,.T.);
#678=EDGE_CURVE('',#529,#558,#266,.T.);
#679=EDGE_CURVE('',#558,#559,#267,.T.);
#680=EDGE_CURVE('',#559,#530,#268,.T.);
#681=EDGE_CURVE('',#560,#561,#269,.T.);
#682=EDGE_CURVE('',#561,#527,#270,.T.);
#683=EDGE_CURVE('',#560,#528,#271,.T.);
#684=EDGE_CURVE('',#561,#558,#272,.T.);
#685=EDGE_CURVE('',#559,#560,#273,.T.);
#686=EDGE_CURVE('',#562,#561,#274,.T.);
#687=EDGE_CURVE('',#563,#562,#275,.T.);
#688=EDGE_CURVE('',#563,#558,#276,.T.);
#689=EDGE_CURVE('',#564,#560,#277,.T.);
#690=EDGE_CURVE('',#562,#564,#278,.T.);
#691=EDGE_CURVE('',#565,#559,#279,.T.);
#692=EDGE_CURVE('',#564,#565,#280,.T.);
#693=EDGE_CURVE('',#565,#563,#281,.T.);
#694=EDGE_CURVE('',#566,#567,#496,.T.);
#695=EDGE_CURVE('',#566,#539,#282,.T.);
#696=EDGE_CURVE('',#538,#567,#283,.T.);
#697=EDGE_CURVE('',#568,#567,#284,.T.);
#698=EDGE_CURVE('',#568,#569,#285,.T.);
#699=EDGE_CURVE('',#569,#570,#286,.T.);
#700=EDGE_CURVE('',#566,#570,#287,.T.);
#701=EDGE_CURVE('',#571,#571,#497,.T.);
#702=EDGE_CURVE('',#572,#537,#288,.T.);
#703=EDGE_CURVE('',#572,#573,#289,.T.);
#704=EDGE_CURVE('',#573,#574,#290,.T.);
#705=EDGE_CURVE('',#575,#574,#291,.T.);
#706=EDGE_CURVE('',#575,#568,#292,.T.);
#707=EDGE_CURVE('',#576,#577,#498,.T.);
#708=EDGE_CURVE('',#576,#541,#293,.T.);
#709=EDGE_CURVE('',#540,#577,#294,.T.);
#710=EDGE_CURVE('',#576,#578,#295,.T.);
#711=EDGE_CURVE('',#578,#579,#296,.T.);
#712=EDGE_CURVE('',#580,#579,#297,.T.);
#713=EDGE_CURVE('',#580,#581,#298,.T.);
#714=EDGE_CURVE('',#581,#582,#299,.T.);
#715=EDGE_CURVE('',#542,#582,#300,.T.);
#716=EDGE_CURVE('',#583,#582,#499,.T.);
#717=EDGE_CURVE('',#583,#543,#301,.T.);
#718=EDGE_CURVE('',#583,#584,#302,.T.);
#719=EDGE_CURVE('',#584,#585,#303,.T.);
#720=EDGE_CURVE('',#586,#585,#304,.T.);
#721=EDGE_CURVE('',#586,#587,#305,.T.);
#722=EDGE_CURVE('',#587,#588,#306,.T.);
#723=EDGE_CURVE('',#536,#588,#307,.T.);
#724=EDGE_CURVE('',#535,#589,#308,.T.);
#725=EDGE_CURVE('',#589,#590,#309,.T.);
#726=EDGE_CURVE('',#590,#544,#310,.T.);
#727=EDGE_CURVE('',#572,#588,#500,.T.);
#728=EDGE_CURVE('',#591,#591,#501,.T.);
#729=EDGE_CURVE('',#591,#592,#311,.T.);
#730=EDGE_CURVE('',#592,#592,#502,.T.);
#731=EDGE_CURVE('',#592,#593,#312,.T.);
#732=EDGE_CURVE('',#593,#593,#503,.T.);
#733=EDGE_CURVE('',#581,#594,#313,.T.);
#734=EDGE_CURVE('',#594,#584,#314,.T.);
#735=EDGE_CURVE('',#595,#595,#504,.T.);
#736=EDGE_CURVE('',#595,#596,#315,.T.);
#737=EDGE_CURVE('',#596,#596,#505,.T.);
#738=EDGE_CURVE('',#596,#597,#316,.T.);
#739=EDGE_CURVE('',#597,#597,#506,.T.);
#740=EDGE_CURVE('',#598,#577,#317,.T.);
#741=EDGE_CURVE('',#598,#599,#318,.T.);
#742=EDGE_CURVE('',#599,#578,#319,.T.);
#743=EDGE_CURVE('',#600,#600,#507,.T.);
#744=EDGE_CURVE('',#600,#601,#320,.T.);
#745=EDGE_CURVE('',#601,#601,#508,.T.);
#746=EDGE_CURVE('',#601,#602,#321,.T.);
#747=EDGE_CURVE('',#602,#602,#509,.T.);
#748=EDGE_CURVE('',#587,#603,#322,.T.);
#749=EDGE_CURVE('',#603,#573,#323,.T.);
#750=EDGE_CURVE('',#571,#604,#324,.T.);
#751=EDGE_CURVE('',#604,#604,#510,.T.);
#752=EDGE_CURVE('',#604,#605,#325,.T.);
#753=EDGE_CURVE('',#605,#605,#511,.T.);
#754=EDGE_CURVE('',#579,#606,#326,.T.);
#755=EDGE_CURVE('',#606,#599,#327,.T.);
#756=EDGE_CURVE('',#606,#607,#328,.T.);
#757=EDGE_CURVE('',#607,#598,#329,.T.);
#758=EDGE_CURVE('',#607,#608,#330,.T.);
#759=EDGE_CURVE('',#608,#609,#331,.T.);
#760=EDGE_CURVE('',#609,#575,#332,.T.);
#761=EDGE_CURVE('',#574,#610,#333,.T.);
#762=EDGE_CURVE('',#610,#586,#334,.T.);
#763=EDGE_CURVE('',#585,#611,#335,.T.);
#764=EDGE_CURVE('',#611,#580,#336,.T.);
#765=EDGE_CURVE('',#611,#594,#337,.T.);
#766=EDGE_CURVE('',#570,#608,#338,.T.);
#767=EDGE_CURVE('',#609,#569,#339,.T.);
#768=EDGE_CURVE('',#610,#603,#340,.T.);
#769=EDGE_CURVE('',#612,#547,#341,.T.);
#770=EDGE_CURVE('',#612,#613,#342,.T.);
#771=EDGE_CURVE('',#613,#534,#343,.T.);
#772=EDGE_CURVE('',#613,#589,#344,.T.);
#773=EDGE_CURVE('',#614,#612,#345,.T.);
#774=EDGE_CURVE('',#615,#614,#346,.T.);
#775=EDGE_CURVE('',#590,#615,#347,.T.);
#776=EDGE_CURVE('',#615,#545,#348,.T.);
#777=EDGE_CURVE('',#614,#546,#349,.T.);
#778=ORIENTED_EDGE('',*,*,#616,.T.);
#779=ORIENTED_EDGE('',*,*,#617,.T.);
#780=ORIENTED_EDGE('',*,*,#618,.T.);
#781=ORIENTED_EDGE('',*,*,#619,.T.);
#782=ORIENTED_EDGE('',*,*,#618,.F.);
#783=ORIENTED_EDGE('',*,*,#620,.T.);
#784=ORIENTED_EDGE('',*,*,#621,.F.);
#785=ORIENTED_EDGE('',*,*,#622,.T.);
#786=ORIENTED_EDGE('',*,*,#623,.F.);
#787=ORIENTED_EDGE('',*,*,#624,.T.);
#788=ORIENTED_EDGE('',*,*,#625,.F.);
#789=ORIENTED_EDGE('',*,*,#626,.T.);
#790=ORIENTED_EDGE('',*,*,#617,.F.);
#791=ORIENTED_EDGE('',*,*,#627,.F.);
#792=ORIENTED_EDGE('',*,*,#628,.F.);
#793=ORIENTED_EDGE('',*,*,#620,.F.);
#794=ORIENTED_EDGE('',*,*,#629,.T.);
#795=ORIENTED_EDGE('',*,*,#630,.T.);
#796=ORIENTED_EDGE('',*,*,#621,.T.);
#797=ORIENTED_EDGE('',*,*,#628,.T.);
#798=ORIENTED_EDGE('',*,*,#631,.T.);
#799=ORIENTED_EDGE('',*,*,#632,.T.);
#800=ORIENTED_EDGE('',*,*,#623,.T.);
#801=ORIENTED_EDGE('',*,*,#633,.T.);
#802=ORIENTED_EDGE('',*,*,#632,.F.);
#803=ORIENTED_EDGE('',*,*,#634,.F.);
#804=ORIENTED_EDGE('',*,*,#635,.F.);
#805=ORIENTED_EDGE('',*,*,#624,.F.);
#806=ORIENTED_EDGE('',*,*,#636,.F.);
#807=ORIENTED_EDGE('',*,*,#637,.F.);
#808=ORIENTED_EDGE('',*,*,#638,.F.);
#809=ORIENTED_EDGE('',*,*,#639,.F.);
#810=ORIENTED_EDGE('',*,*,#616,.F.);
#811=ORIENTED_EDGE('',*,*,#640,.T.);
#812=ORIENTED_EDGE('',*,*,#641,.F.);
#813=ORIENTED_EDGE('',*,*,#634,.T.);
#814=ORIENTED_EDGE('',*,*,#631,.F.);
#815=ORIENTED_EDGE('',*,*,#642,.T.);
#816=ORIENTED_EDGE('',*,*,#629,.F.);
#817=ORIENTED_EDGE('',*,*,#627,.T.);
#818=ORIENTED_EDGE('',*,*,#643,.F.);
#819=ORIENTED_EDGE('',*,*,#644,.F.);
#820=ORIENTED_EDGE('',*,*,#645,.T.);
#821=ORIENTED_EDGE('',*,*,#646,.T.);
#822=ORIENTED_EDGE('',*,*,#647,.F.);
#823=ORIENTED_EDGE('',*,*,#648,.T.);
#824=ORIENTED_EDGE('',*,*,#649,.F.);
#825=ORIENTED_EDGE('',*,*,#650,.T.);
#826=ORIENTED_EDGE('',*,*,#651,.F.);
#827=ORIENTED_EDGE('',*,*,#652,.T.);
#828=ORIENTED_EDGE('',*,*,#653,.F.);
#829=ORIENTED_EDGE('',*,*,#654,.T.);
#830=ORIENTED_EDGE('',*,*,#655,.T.);
#831=ORIENTED_EDGE('',*,*,#656,.T.);
#832=ORIENTED_EDGE('',*,*,#657,.T.);
#833=ORIENTED_EDGE('',*,*,#658,.T.);
#834=ORIENTED_EDGE('',*,*,#659,.F.);
#835=ORIENTED_EDGE('',*,*,#660,.F.);
#836=ORIENTED_EDGE('',*,*,#641,.T.);
#837=ORIENTED_EDGE('',*,*,#661,.T.);
#838=ORIENTED_EDGE('',*,*,#625,.T.);
#839=ORIENTED_EDGE('',*,*,#635,.T.);
#840=ORIENTED_EDGE('',*,*,#619,.F.);
#841=ORIENTED_EDGE('',*,*,#626,.F.);
#842=ORIENTED_EDGE('',*,*,#661,.F.);
#843=ORIENTED_EDGE('',*,*,#640,.F.);
#844=ORIENTED_EDGE('',*,*,#660,.T.);
#845=ORIENTED_EDGE('',*,*,#662,.T.);
#846=ORIENTED_EDGE('',*,*,#663,.T.);
#847=ORIENTED_EDGE('',*,*,#662,.F.);
#848=ORIENTED_EDGE('',*,*,#663,.F.);
#849=ORIENTED_EDGE('',*,*,#664,.T.);
#850=ORIENTED_EDGE('',*,*,#665,.T.);
#851=ORIENTED_EDGE('',*,*,#664,.F.);
#852=ORIENTED_EDGE('',*,*,#643,.T.);
#853=ORIENTED_EDGE('',*,*,#666,.T.);
#854=ORIENTED_EDGE('',*,*,#667,.T.);
#855=ORIENTED_EDGE('',*,*,#666,.F.);
#856=ORIENTED_EDGE('',*,*,#667,.F.);
#857=ORIENTED_EDGE('',*,*,#668,.T.);
#858=ORIENTED_EDGE('',*,*,#669,.T.);
#859=ORIENTED_EDGE('',*,*,#668,.F.);
#860=ORIENTED_EDGE('',*,*,#659,.T.);
#861=ORIENTED_EDGE('',*,*,#670,.T.);
#862=ORIENTED_EDGE('',*,*,#671,.T.);
#863=ORIENTED_EDGE('',*,*,#670,.F.);
#864=ORIENTED_EDGE('',*,*,#671,.F.);
#865=ORIENTED_EDGE('',*,*,#672,.T.);
#866=ORIENTED_EDGE('',*,*,#673,.T.);
#867=ORIENTED_EDGE('',*,*,#672,.F.);
#868=ORIENTED_EDGE('',*,*,#644,.T.);
#869=ORIENTED_EDGE('',*,*,#674,.T.);
#870=ORIENTED_EDGE('',*,*,#675,.T.);
#871=ORIENTED_EDGE('',*,*,#674,.F.);
#872=ORIENTED_EDGE('',*,*,#675,.F.);
#873=ORIENTED_EDGE('',*,*,#676,.T.);
#874=ORIENTED_EDGE('',*,*,#677,.T.);
#875=ORIENTED_EDGE('',*,*,#676,.F.);
#876=ORIENTED_EDGE('',*,*,#665,.F.);
#877=ORIENTED_EDGE('',*,*,#669,.F.);
#878=ORIENTED_EDGE('',*,*,#677,.F.);
#879=ORIENTED_EDGE('',*,*,#673,.F.);
#880=ORIENTED_EDGE('',*,*,#638,.T.);
#881=ORIENTED_EDGE('',*,*,#678,.T.);
#882=ORIENTED_EDGE('',*,*,#679,.T.);
#883=ORIENTED_EDGE('',*,*,#680,.T.);
#884=ORIENTED_EDGE('',*,*,#681,.T.);
#885=ORIENTED_EDGE('',*,*,#682,.T.);
#886=ORIENTED_EDGE('',*,*,#636,.T.);
#887=ORIENTED_EDGE('',*,*,#683,.F.);
#888=ORIENTED_EDGE('',*,*,#637,.T.);
#889=ORIENTED_EDGE('',*,*,#682,.F.);
#890=ORIENTED_EDGE('',*,*,#684,.T.);
#891=ORIENTED_EDGE('',*,*,#678,.F.);
#892=ORIENTED_EDGE('',*,*,#639,.T.);
#893=ORIENTED_EDGE('',*,*,#680,.F.);
#894=ORIENTED_EDGE('',*,*,#685,.T.);
#895=ORIENTED_EDGE('',*,*,#683,.T.);
#896=ORIENTED_EDGE('',*,*,#684,.F.);
#897=ORIENTED_EDGE('',*,*,#686,.F.);
#898=ORIENTED_EDGE('',*,*,#687,.F.);
#899=ORIENTED_EDGE('',*,*,#688,.T.);
#900=ORIENTED_EDGE('',*,*,#681,.F.);
#901=ORIENTED_EDGE('',*,*,#689,.F.);
#902=ORIENTED_EDGE('',*,*,#690,.F.);
#903=ORIENTED_EDGE('',*,*,#686,.T.);
#904=ORIENTED_EDGE('',*,*,#685,.F.);
#905=ORIENTED_EDGE('',*,*,#691,.F.);
#906=ORIENTED_EDGE('',*,*,#692,.F.);
#907=ORIENTED_EDGE('',*,*,#689,.T.);
#908=ORIENTED_EDGE('',*,*,#679,.F.);
#909=ORIENTED_EDGE('',*,*,#688,.F.);
#910=ORIENTED_EDGE('',*,*,#693,.F.);
#911=ORIENTED_EDGE('',*,*,#691,.T.);
#912=ORIENTED_EDGE('',*,*,#694,.F.);
#913=ORIENTED_EDGE('',*,*,#695,.T.);
#914=ORIENTED_EDGE('',*,*,#649,.T.);
#915=ORIENTED_EDGE('',*,*,#696,.T.);
#916=ORIENTED_EDGE('',*,*,#694,.T.);
#917=ORIENTED_EDGE('',*,*,#697,.F.);
#918=ORIENTED_EDGE('',*,*,#698,.T.);
#919=ORIENTED_EDGE('',*,*,#699,.T.);
#920=ORIENTED_EDGE('',*,*,#700,.F.);
#921=ORIENTED_EDGE('',*,*,#701,.F.);
#922=ORIENTED_EDGE('',*,*,#696,.F.);
#923=ORIENTED_EDGE('',*,*,#648,.F.);
#924=ORIENTED_EDGE('',*,*,#702,.F.);
#925=ORIENTED_EDGE('',*,*,#703,.T.);
#926=ORIENTED_EDGE('',*,*,#704,.T.);
#927=ORIENTED_EDGE('',*,*,#705,.F.);
#928=ORIENTED_EDGE('',*,*,#706,.T.);
#929=ORIENTED_EDGE('',*,*,#697,.T.);
#930=ORIENTED_EDGE('',*,*,#707,.F.);
#931=ORIENTED_EDGE('',*,*,#708,.T.);
#932=ORIENTED_EDGE('',*,*,#651,.T.);
#933=ORIENTED_EDGE('',*,*,#709,.T.);
#934=ORIENTED_EDGE('',*,*,#708,.F.);
#935=ORIENTED_EDGE('',*,*,#710,.T.);
#936=ORIENTED_EDGE('',*,*,#711,.T.);
#937=ORIENTED_EDGE('',*,*,#712,.F.);
#938=ORIENTED_EDGE('',*,*,#713,.T.);
#939=ORIENTED_EDGE('',*,*,#714,.T.);
#940=ORIENTED_EDGE('',*,*,#715,.F.);
#941=ORIENTED_EDGE('',*,*,#652,.F.);
#942=ORIENTED_EDGE('',*,*,#716,.F.);
#943=ORIENTED_EDGE('',*,*,#717,.T.);
#944=ORIENTED_EDGE('',*,*,#653,.T.);
#945=ORIENTED_EDGE('',*,*,#715,.T.);
#946=ORIENTED_EDGE('',*,*,#717,.F.);
#947=ORIENTED_EDGE('',*,*,#718,.T.);
#948=ORIENTED_EDGE('',*,*,#719,.T.);
#949=ORIENTED_EDGE('',*,*,#720,.F.);
#950=ORIENTED_EDGE('',*,*,#721,.T.);
#951=ORIENTED_EDGE('',*,*,#722,.T.);
#952=ORIENTED_EDGE('',*,*,#723,.F.);
#953=ORIENTED_EDGE('',*,*,#646,.F.);
#954=ORIENTED_EDGE('',*,*,#724,.T.);
#955=ORIENTED_EDGE('',*,*,#725,.T.);
#956=ORIENTED_EDGE('',*,*,#726,.T.);
#957=ORIENTED_EDGE('',*,*,#654,.F.);
#958=ORIENTED_EDGE('',*,*,#727,.F.);
#959=ORIENTED_EDGE('',*,*,#702,.T.);
#960=ORIENTED_EDGE('',*,*,#647,.T.);
#961=ORIENTED_EDGE('',*,*,#723,.T.);
#962=ORIENTED_EDGE('',*,*,#728,.T.);
#963=ORIENTED_EDGE('',*,*,#729,.T.);
#964=ORIENTED_EDGE('',*,*,#730,.T.);
#965=ORIENTED_EDGE('',*,*,#729,.F.);
#966=ORIENTED_EDGE('',*,*,#730,.F.);
#967=ORIENTED_EDGE('',*,*,#731,.T.);
#968=ORIENTED_EDGE('',*,*,#732,.T.);
#969=ORIENTED_EDGE('',*,*,#731,.F.);
#970=ORIENTED_EDGE('',*,*,#716,.T.);
#971=ORIENTED_EDGE('',*,*,#714,.F.);
#972=ORIENTED_EDGE('',*,*,#733,.T.);
#973=ORIENTED_EDGE('',*,*,#734,.T.);
#974=ORIENTED_EDGE('',*,*,#718,.F.);
#975=ORIENTED_EDGE('',*,*,#728,.F.);
#976=ORIENTED_EDGE('',*,*,#735,.T.);
#977=ORIENTED_EDGE('',*,*,#736,.T.);
#978=ORIENTED_EDGE('',*,*,#737,.T.);
#979=ORIENTED_EDGE('',*,*,#736,.F.);
#980=ORIENTED_EDGE('',*,*,#737,.F.);
#981=ORIENTED_EDGE('',*,*,#738,.T.);
#982=ORIENTED_EDGE('',*,*,#739,.T.);
#983=ORIENTED_EDGE('',*,*,#738,.F.);
#984=ORIENTED_EDGE('',*,*,#707,.T.);
#985=ORIENTED_EDGE('',*,*,#740,.F.);
#986=ORIENTED_EDGE('',*,*,#741,.T.);
#987=ORIENTED_EDGE('',*,*,#742,.T.);
#988=ORIENTED_EDGE('',*,*,#710,.F.);
#989=ORIENTED_EDGE('',*,*,#735,.F.);
#990=ORIENTED_EDGE('',*,*,#743,.T.);
#991=ORIENTED_EDGE('',*,*,#744,.T.);
#992=ORIENTED_EDGE('',*,*,#745,.T.);
#993=ORIENTED_EDGE('',*,*,#744,.F.);
#994=ORIENTED_EDGE('',*,*,#745,.F.);
#995=ORIENTED_EDGE('',*,*,#746,.T.);
#996=ORIENTED_EDGE('',*,*,#747,.T.);
#997=ORIENTED_EDGE('',*,*,#746,.F.);
#998=ORIENTED_EDGE('',*,*,#727,.T.);
#999=ORIENTED_EDGE('',*,*,#722,.F.);
#1000=ORIENTED_EDGE('',*,*,#748,.T.);
#1001=ORIENTED_EDGE('',*,*,#749,.T.);
#1002=ORIENTED_EDGE('',*,*,#703,.F.);
#1003=ORIENTED_EDGE('',*,*,#743,.F.);
#1004=ORIENTED_EDGE('',*,*,#701,.T.);
#1005=ORIENTED_EDGE('',*,*,#750,.T.);
#1006=ORIENTED_EDGE('',*,*,#751,.T.);
#1007=ORIENTED_EDGE('',*,*,#750,.F.);
#1008=ORIENTED_EDGE('',*,*,#751,.F.);
#1009=ORIENTED_EDGE('',*,*,#752,.T.);
#1010=ORIENTED_EDGE('',*,*,#753,.T.);
#1011=ORIENTED_EDGE('',*,*,#752,.F.);
#1012=ORIENTED_EDGE('',*,*,#747,.F.);
#1013=ORIENTED_EDGE('',*,*,#753,.F.);
#1014=ORIENTED_EDGE('',*,*,#732,.F.);
#1015=ORIENTED_EDGE('',*,*,#739,.F.);
#1016=ORIENTED_EDGE('',*,*,#754,.F.);
#1017=ORIENTED_EDGE('',*,*,#711,.F.);
#1018=ORIENTED_EDGE('',*,*,#742,.F.);
#1019=ORIENTED_EDGE('',*,*,#755,.F.);
#1020=ORIENTED_EDGE('',*,*,#756,.F.);
#1021=ORIENTED_EDGE('',*,*,#755,.T.);
#1022=ORIENTED_EDGE('',*,*,#741,.F.);
#1023=ORIENTED_EDGE('',*,*,#757,.F.);
#1024=ORIENTED_EDGE('',*,*,#754,.T.);
#1025=ORIENTED_EDGE('',*,*,#756,.T.);
#1026=ORIENTED_EDGE('',*,*,#758,.T.);
#1027=ORIENTED_EDGE('',*,*,#759,.T.);
#1028=ORIENTED_EDGE('',*,*,#760,.T.);
#1029=ORIENTED_EDGE('',*,*,#705,.T.);
#1030=ORIENTED_EDGE('',*,*,#761,.T.);
#1031=ORIENTED_EDGE('',*,*,#762,.T.);
#1032=ORIENTED_EDGE('',*,*,#720,.T.);
#1033=ORIENTED_EDGE('',*,*,#763,.T.);
#1034=ORIENTED_EDGE('',*,*,#764,.T.);
#1035=ORIENTED_EDGE('',*,*,#712,.T.);
#1036=ORIENTED_EDGE('',*,*,#763,.F.);
#1037=ORIENTED_EDGE('',*,*,#719,.F.);
#1038=ORIENTED_EDGE('',*,*,#734,.F.);
#1039=ORIENTED_EDGE('',*,*,#765,.F.);
#1040=ORIENTED_EDGE('',*,*,#764,.F.);
#1041=ORIENTED_EDGE('',*,*,#765,.T.);
#1042=ORIENTED_EDGE('',*,*,#733,.F.);
#1043=ORIENTED_EDGE('',*,*,#713,.F.);
#1044=ORIENTED_EDGE('',*,*,#759,.F.);
#1045=ORIENTED_EDGE('',*,*,#766,.F.);
#1046=ORIENTED_EDGE('',*,*,#699,.F.);
#1047=ORIENTED_EDGE('',*,*,#767,.F.);
#1048=ORIENTED_EDGE('',*,*,#760,.F.);
#1049=ORIENTED_EDGE('',*,*,#767,.T.);
#1050=ORIENTED_EDGE('',*,*,#698,.F.);
#1051=ORIENTED_EDGE('',*,*,#706,.F.);
#1052=ORIENTED_EDGE('',*,*,#761,.F.);
#1053=ORIENTED_EDGE('',*,*,#704,.F.);
#1054=ORIENTED_EDGE('',*,*,#749,.F.);
#1055=ORIENTED_EDGE('',*,*,#768,.F.);
#1056=ORIENTED_EDGE('',*,*,#762,.F.);
#1057=ORIENTED_EDGE('',*,*,#768,.T.);
#1058=ORIENTED_EDGE('',*,*,#748,.F.);
#1059=ORIENTED_EDGE('',*,*,#721,.F.);
#1060=ORIENTED_EDGE('',*,*,#658,.F.);
#1061=ORIENTED_EDGE('',*,*,#769,.F.);
#1062=ORIENTED_EDGE('',*,*,#770,.T.);
#1063=ORIENTED_EDGE('',*,*,#771,.T.);
#1064=ORIENTED_EDGE('',*,*,#645,.F.);
#1065=ORIENTED_EDGE('',*,*,#771,.F.);
#1066=ORIENTED_EDGE('',*,*,#772,.T.);
#1067=ORIENTED_EDGE('',*,*,#724,.F.);
#1068=ORIENTED_EDGE('',*,*,#725,.F.);
#1069=ORIENTED_EDGE('',*,*,#772,.F.);
#1070=ORIENTED_EDGE('',*,*,#770,.F.);
#1071=ORIENTED_EDGE('',*,*,#773,.F.);
#1072=ORIENTED_EDGE('',*,*,#774,.F.);
#1073=ORIENTED_EDGE('',*,*,#775,.F.);
#1074=ORIENTED_EDGE('',*,*,#655,.F.);
#1075=ORIENTED_EDGE('',*,*,#726,.F.);
#1076=ORIENTED_EDGE('',*,*,#775,.T.);
#1077=ORIENTED_EDGE('',*,*,#776,.T.);
#1078=ORIENTED_EDGE('',*,*,#656,.F.);
#1079=ORIENTED_EDGE('',*,*,#776,.F.);
#1080=ORIENTED_EDGE('',*,*,#774,.T.);
#1081=ORIENTED_EDGE('',*,*,#777,.T.);
#1082=ORIENTED_EDGE('',*,*,#693,.T.);
#1083=ORIENTED_EDGE('',*,*,#687,.T.);
#1084=ORIENTED_EDGE('',*,*,#690,.T.);
#1085=ORIENTED_EDGE('',*,*,#692,.T.);
#1086=ORIENTED_EDGE('',*,*,#657,.F.);
#1087=ORIENTED_EDGE('',*,*,#777,.F.);
#1088=ORIENTED_EDGE('',*,*,#773,.T.);
#1089=ORIENTED_EDGE('',*,*,#769,.T.);
#1090=ORIENTED_EDGE('',*,*,#695,.F.);
#1091=ORIENTED_EDGE('',*,*,#700,.T.);
#1092=ORIENTED_EDGE('',*,*,#766,.T.);
#1093=ORIENTED_EDGE('',*,*,#758,.F.);
#1094=ORIENTED_EDGE('',*,*,#757,.T.);
#1095=ORIENTED_EDGE('',*,*,#740,.T.);
#1096=ORIENTED_EDGE('',*,*,#709,.F.);
#1097=ORIENTED_EDGE('',*,*,#650,.F.);
#1098=ORIENTED_EDGE('',*,*,#630,.F.);
#1099=ORIENTED_EDGE('',*,*,#642,.F.);
#1100=ORIENTED_EDGE('',*,*,#633,.F.);
#1101=ORIENTED_EDGE('',*,*,#622,.F.);
#1102=CYLINDRICAL_SURFACE('',#1189,5.);
#1103=CYLINDRICAL_SURFACE('',#1197,5.);
#1104=CYLINDRICAL_SURFACE('',#1199,5.);
#1105=CYLINDRICAL_SURFACE('',#1212,5.);
#1106=CYLINDRICAL_SURFACE('',#1216,2.35);
#1107=CYLINDRICAL_SURFACE('',#1220,2.34999999999999);
#1108=CYLINDRICAL_SURFACE('',#1224,2.34999999999999);
#1109=CYLINDRICAL_SURFACE('',#1228,2.35);
#1110=CYLINDRICAL_SURFACE('',#1242,3.);
#1111=CYLINDRICAL_SURFACE('',#1247,3.);
#1112=CYLINDRICAL_SURFACE('',#1250,3.);
#1113=CYLINDRICAL_SURFACE('',#1253,3.);
#1114=CYLINDRICAL_SURFACE('',#1258,2.3);
#1115=CYLINDRICAL_SURFACE('',#1264,2.3);
#1116=CYLINDRICAL_SURFACE('',#1270,2.3);
#1117=CYLINDRICAL_SURFACE('',#1275,2.3);
#1118=ADVANCED_FACE('',(#79),#1102,.T.);
#1119=ADVANCED_FACE('',(#80),#34,.F.);
#1120=ADVANCED_FACE('',(#81),#35,.T.);
#1121=ADVANCED_FACE('',(#82),#1103,.T.);
#1122=ADVANCED_FACE('',(#83),#1104,.T.);
#1123=ADVANCED_FACE('',(#84,#23),#36,.T.);
#1124=ADVANCED_FACE('',(#85,#24,#25,#26,#27,#28),#37,.T.);
#1125=ADVANCED_FACE('',(#86),#1105,.T.);
#1126=ADVANCED_FACE('',(#87),#38,.T.);
#1127=ADVANCED_FACE('',(#88),#15,.F.);
#1128=ADVANCED_FACE('',(#89),#1106,.F.);
#1129=ADVANCED_FACE('',(#90),#16,.F.);
#1130=ADVANCED_FACE('',(#91),#1107,.F.);
#1131=ADVANCED_FACE('',(#92),#17,.F.);
#1132=ADVANCED_FACE('',(#93),#1108,.F.);
#1133=ADVANCED_FACE('',(#94),#18,.F.);
#1134=ADVANCED_FACE('',(#95),#1109,.F.);
#1135=ADVANCED_FACE('',(#96),#39,.T.);
#1136=ADVANCED_FACE('',(#97),#40,.T.);
#1137=ADVANCED_FACE('',(#98),#41,.T.);
#1138=ADVANCED_FACE('',(#99),#42,.T.);
#1139=ADVANCED_FACE('',(#100),#43,.T.);
#1140=ADVANCED_FACE('',(#101),#44,.T.);
#1141=ADVANCED_FACE('',(#102),#45,.T.);
#1142=ADVANCED_FACE('',(#103),#46,.T.);
#1143=ADVANCED_FACE('',(#104),#47,.F.);
#1144=ADVANCED_FACE('',(#105),#48,.F.);
#1145=ADVANCED_FACE('',(#106),#49,.F.);
#1146=ADVANCED_FACE('',(#107),#50,.F.);
#1147=ADVANCED_FACE('',(#108),#1110,.F.);
#1148=ADVANCED_FACE('',(#109,#29),#51,.T.);
#1149=ADVANCED_FACE('',(#110),#52,.T.);
#1150=ADVANCED_FACE('',(#111),#1111,.F.);
#1151=ADVANCED_FACE('',(#112),#53,.T.);
#1152=ADVANCED_FACE('',(#113),#1112,.F.);
#1153=ADVANCED_FACE('',(#114),#54,.T.);
#1154=ADVANCED_FACE('',(#115),#1113,.F.);
#1155=ADVANCED_FACE('',(#116),#19,.F.);
#1156=ADVANCED_FACE('',(#117),#1114,.F.);
#1157=ADVANCED_FACE('',(#118,#30),#55,.T.);
#1158=ADVANCED_FACE('',(#119),#20,.F.);
#1159=ADVANCED_FACE('',(#120),#1115,.F.);
#1160=ADVANCED_FACE('',(#121,#31),#56,.T.);
#1161=ADVANCED_FACE('',(#122),#21,.F.);
#1162=ADVANCED_FACE('',(#123),#1116,.F.);
#1163=ADVANCED_FACE('',(#124,#32),#57,.T.);
#1164=ADVANCED_FACE('',(#125),#22,.F.);
#1165=ADVANCED_FACE('',(#126),#1117,.F.);
#1166=ADVANCED_FACE('',(#127),#58,.T.);
#1167=ADVANCED_FACE('',(#128),#59,.T.);
#1168=ADVANCED_FACE('',(#129),#60,.T.);
#1169=ADVANCED_FACE('',(#130),#61,.T.);
#1170=ADVANCED_FACE('',(#131),#62,.T.);
#1171=ADVANCED_FACE('',(#132),#63,.T.);
#1172=ADVANCED_FACE('',(#133),#64,.T.);
#1173=ADVANCED_FACE('',(#134),#65,.T.);
#1174=ADVANCED_FACE('',(#135),#66,.T.);
#1175=ADVANCED_FACE('',(#136),#67,.T.);
#1176=ADVANCED_FACE('',(#137),#68,.T.);
#1177=ADVANCED_FACE('',(#138),#69,.T.);
#1178=ADVANCED_FACE('',(#139),#70,.T.);
#1179=ADVANCED_FACE('',(#140),#71,.F.);
#1180=ADVANCED_FACE('',(#141),#72,.F.);
#1181=ADVANCED_FACE('',(#142),#73,.T.);
#1182=ADVANCED_FACE('',(#143),#74,.F.);
#1183=ADVANCED_FACE('',(#144,#33),#75,.F.);
#1184=ADVANCED_FACE('',(#145),#76,.F.);
#1185=ADVANCED_FACE('',(#146),#77,.T.);
#1186=ADVANCED_FACE('',(#147),#78,.T.);
#1187=CLOSED_SHELL('',(#1118,#1119,#1120,#1121,#1122,#1123,#1124,#1125,
#1126,#1127,#1128,#1129,#1130,#1131,#1132,#1133,#1134,#1135,#1136,#1137,
#1138,#1139,#1140,#1141,#1142,#1143,#1144,#1145,#1146,#1147,#1148,#1149,
#1150,#1151,#1152,#1153,#1154,#1155,#1156,#1157,#1158,#1159,#1160,#1161,
#1162,#1163,#1164,#1165,#1166,#1167,#1168,#1169,#1170,#1171,#1172,#1173,
#1174,#1175,#1176,#1177,#1178,#1179,#1180,#1181,#1182,#1183,#1184,#1185,
#1186));
#1188=AXIS2_PLACEMENT_3D('',#1640,#1298,#1299);
#1189=AXIS2_PLACEMENT_3D('',#1641,#1300,#1301);
#1190=AXIS2_PLACEMENT_3D('',#1644,#1302,#1303);
#1191=AXIS2_PLACEMENT_3D('',#1648,#1305,#1306);
#1192=AXIS2_PLACEMENT_3D('',#1650,#1308,#1309);
#1193=AXIS2_PLACEMENT_3D('',#1654,#1311,#1312);
#1194=AXIS2_PLACEMENT_3D('',#1658,#1314,#1315);
#1195=AXIS2_PLACEMENT_3D('',#1662,#1317,#1318);
#1196=AXIS2_PLACEMENT_3D('',#1664,#1320,#1321);
#1197=AXIS2_PLACEMENT_3D('',#1668,#1324,#1325);
#1198=AXIS2_PLACEMENT_3D('',#1670,#1326,#1327);
#1199=AXIS2_PLACEMENT_3D('',#1672,#1329,#1330);
#1200=AXIS2_PLACEMENT_3D('',#1675,#1331,#1332);
#1201=AXIS2_PLACEMENT_3D('',#1678,#1335,#1336);
#1202=AXIS2_PLACEMENT_3D('',#1690,#1343,#1344);
#1203=AXIS2_PLACEMENT_3D('',#1693,#1346,#1347);
#1204=AXIS2_PLACEMENT_3D('',#1696,#1349,#1350);
#1205=AXIS2_PLACEMENT_3D('',#1698,#1351,#1352);
#1206=AXIS2_PLACEMENT_3D('',#1705,#1355,#1356);
#1207=AXIS2_PLACEMENT_3D('',#1709,#1358,#1359);
#1208=AXIS2_PLACEMENT_3D('',#1713,#1361,#1362);
#1209=AXIS2_PLACEMENT_3D('',#1717,#1364,#1365);
#1210=AXIS2_PLACEMENT_3D('',#1728,#1371,#1372);
#1211=AXIS2_PLACEMENT_3D('',#1730,#1373,#1374);
#1212=AXIS2_PLACEMENT_3D('',#1731,#1375,#1376);
#1213=AXIS2_PLACEMENT_3D('',#1733,#1378,#1379);
#1214=AXIS2_PLACEMENT_3D('',#1734,#1380,#1381);
#1215=AXIS2_PLACEMENT_3D('',#1737,#1383,#1384);
#1216=AXIS2_PLACEMENT_3D('',#1738,#1385,#1386);
#1217=AXIS2_PLACEMENT_3D('',#1741,#1388,#1389);
#1218=AXIS2_PLACEMENT_3D('',#1742,#1390,#1391);
#1219=AXIS2_PLACEMENT_3D('',#1745,#1393,#1394);
#1220=AXIS2_PLACEMENT_3D('',#1746,#1395,#1396);
#1221=AXIS2_PLACEMENT_3D('',#1749,#1398,#1399);
#1222=AXIS2_PLACEMENT_3D('',#1750,#1400,#1401);
#1223=AXIS2_PLACEMENT_3D('',#1753,#1403,#1404);
#1224=AXIS2_PLACEMENT_3D('',#1754,#1405,#1406);
#1225=AXIS2_PLACEMENT_3D('',#1757,#1408,#1409);
#1226=AXIS2_PLACEMENT_3D('',#1758,#1410,#1411);
#1227=AXIS2_PLACEMENT_3D('',#1761,#1413,#1414);
#1228=AXIS2_PLACEMENT_3D('',#1762,#1415,#1416);
#1229=AXIS2_PLACEMENT_3D('',#1765,#1418,#1419);
#1230=AXIS2_PLACEMENT_3D('',#1766,#1420,#1421);
#1231=AXIS2_PLACEMENT_3D('',#1767,#1422,#1423);
#1232=AXIS2_PLACEMENT_3D('',#1768,#1424,#1425);
#1233=AXIS2_PLACEMENT_3D('',#1769,#1426,#1427);
#1234=AXIS2_PLACEMENT_3D('',#1770,#1428,#1429);
#1235=AXIS2_PLACEMENT_3D('',#1776,#1433,#1434);
#1236=AXIS2_PLACEMENT_3D('',#1782,#1438,#1439);
#1237=AXIS2_PLACEMENT_3D('',#1784,#1441,#1442);
#1238=AXIS2_PLACEMENT_3D('',#1786,#1444,#1445);
#1239=AXIS2_PLACEMENT_3D('',#1792,#1449,#1450);
#1240=AXIS2_PLACEMENT_3D('',#1796,#1453,#1454);
#1241=AXIS2_PLACEMENT_3D('',#1800,#1457,#1458);
#1242=AXIS2_PLACEMENT_3D('',#1802,#1460,#1461);
#1243=AXIS2_PLACEMENT_3D('',#1805,#1462,#1463);
#1244=AXIS2_PLACEMENT_3D('',#1808,#1466,#1467);
#1245=AXIS2_PLACEMENT_3D('',#1817,#1472,#1473);
#1246=AXIS2_PLACEMENT_3D('',#1818,#1474,#1475);
#1247=AXIS2_PLACEMENT_3D('',#1828,#1481,#1482);
#1248=AXIS2_PLACEMENT_3D('',#1831,#1483,#1484);
#1249=AXIS2_PLACEMENT_3D('',#1834,#1487,#1488);
#1250=AXIS2_PLACEMENT_3D('',#1846,#1495,#1496);
#1251=AXIS2_PLACEMENT_3D('',#1848,#1497,#1498);
#1252=AXIS2_PLACEMENT_3D('',#1850,#1500,#1501);
#1253=AXIS2_PLACEMENT_3D('',#1867,#1511,#1512);
#1254=AXIS2_PLACEMENT_3D('',#1868,#1513,#1514);
#1255=AXIS2_PLACEMENT_3D('',#1869,#1515,#1516);
#1256=AXIS2_PLACEMENT_3D('',#1871,#1517,#1518);
#1257=AXIS2_PLACEMENT_3D('',#1874,#1520,#1521);
#1258=AXIS2_PLACEMENT_3D('',#1875,#1522,#1523);
#1259=AXIS2_PLACEMENT_3D('',#1878,#1525,#1526);
#1260=AXIS2_PLACEMENT_3D('',#1879,#1527,#1528);
#1261=AXIS2_PLACEMENT_3D('',#1883,#1531,#1532);
#1262=AXIS2_PLACEMENT_3D('',#1885,#1533,#1534);
#1263=AXIS2_PLACEMENT_3D('',#1888,#1536,#1537);
#1264=AXIS2_PLACEMENT_3D('',#1889,#1538,#1539);
#1265=AXIS2_PLACEMENT_3D('',#1892,#1541,#1542);
#1266=AXIS2_PLACEMENT_3D('',#1893,#1543,#1544);
#1267=AXIS2_PLACEMENT_3D('',#1899,#1548,#1549);
#1268=AXIS2_PLACEMENT_3D('',#1901,#1550,#1551);
#1269=AXIS2_PLACEMENT_3D('',#1904,#1553,#1554);
#1270=AXIS2_PLACEMENT_3D('',#1905,#1555,#1556);
#1271=AXIS2_PLACEMENT_3D('',#1908,#1558,#1559);
#1272=AXIS2_PLACEMENT_3D('',#1909,#1560,#1561);
#1273=AXIS2_PLACEMENT_3D('',#1913,#1564,#1565);
#1274=AXIS2_PLACEMENT_3D('',#1916,#1567,#1568);
#1275=AXIS2_PLACEMENT_3D('',#1917,#1569,#1570);
#1276=AXIS2_PLACEMENT_3D('',#1920,#1572,#1573);
#1277=AXIS2_PLACEMENT_3D('',#1921,#1574,#1575);
#1278=AXIS2_PLACEMENT_3D('',#1922,#1576,#1577);
#1279=AXIS2_PLACEMENT_3D('',#1923,#1578,#1579);
#1280=AXIS2_PLACEMENT_3D('',#1924,#1580,#1581);
#1281=AXIS2_PLACEMENT_3D('',#1925,#1582,#1583);
#1282=AXIS2_PLACEMENT_3D('',#1929,#1586,#1587);
#1283=AXIS2_PLACEMENT_3D('',#1933,#1590,#1591);
#1284=AXIS2_PLACEMENT_3D('',#1945,#1599,#1600);
#1285=AXIS2_PLACEMENT_3D('',#1947,#1602,#1603);
#1286=AXIS2_PLACEMENT_3D('',#1948,#1604,#1605);
#1287=AXIS2_PLACEMENT_3D('',#1951,#1608,#1609);
#1288=AXIS2_PLACEMENT_3D('',#1952,#1610,#1611);
#1289=AXIS2_PLACEMENT_3D('',#1954,#1613,#1614);
#1290=AXIS2_PLACEMENT_3D('',#1955,#1615,#1616);
#1291=AXIS2_PLACEMENT_3D('',#1961,#1620,#1621);
#1292=AXIS2_PLACEMENT_3D('',#1963,#1623,#1624);
#1293=AXIS2_PLACEMENT_3D('',#1969,#1628,#1629);
#1294=AXIS2_PLACEMENT_3D('',#1971,#1631,#1632);
#1295=AXIS2_PLACEMENT_3D('',#1973,#1634,#1635);
#1296=AXIS2_PLACEMENT_3D('',#1974,#1636,#1637);
#1297=AXIS2_PLACEMENT_3D('',#1975,#1638,#1639);
#1298=DIRECTION('axis',(0.,0.,1.));
#1299=DIRECTION('refdir',(1.,0.,0.));
#1300=DIRECTION('center_axis',(0.,0.,1.));
#1301=DIRECTION('ref_axis',(-0.707106781186547,0.707106781186547,0.));
#1302=DIRECTION('center_axis',(0.,0.,-1.));
#1303=DIRECTION('ref_axis',(-0.707106781186547,0.707106781186547,0.));
#1304=DIRECTION('',(0.,0.,-1.));
#1305=DIRECTION('center_axis',(0.,0.,1.));
#1306=DIRECTION('ref_axis',(-0.707106781186547,0.707106781186547,0.));
#1307=DIRECTION('',(0.,0.,1.));
#1308=DIRECTION('center_axis',(0.,0.,1.));
#1309=DIRECTION('ref_axis',(1.,0.,0.));
#1310=DIRECTION('',(1.,-7.9301644616085E-17,0.));
#1311=DIRECTION('center_axis',(0.,0.,1.));
#1312=DIRECTION('ref_axis',(0.707106781186547,0.707106781186547,0.));
#1313=DIRECTION('',(0.,-1.,0.));
#1314=DIRECTION('center_axis',(0.,0.,1.));
#1315=DIRECTION('ref_axis',(0.707106781186547,-0.707106781186547,0.));
#1316=DIRECTION('',(-1.,0.,0.));
#1317=DIRECTION('center_axis',(0.,0.,1.));
#1318=DIRECTION('ref_axis',(-0.707106781186547,-0.707106781186547,0.));
#1319=DIRECTION('',(0.,1.,0.));
#1320=DIRECTION('center_axis',(7.9301644616085E-17,1.,0.));
#1321=DIRECTION('ref_axis',(-1.,7.9301644616085E-17,0.));
#1322=DIRECTION('',(-1.,7.9301644616085E-17,0.));
#1323=DIRECTION('',(0.,0.,1.));
#1324=DIRECTION('center_axis',(0.,0.,1.));
#1325=DIRECTION('ref_axis',(0.707106781186547,0.707106781186547,0.));
#1326=DIRECTION('center_axis',(0.,0.,-1.));
#1327=DIRECTION('ref_axis',(0.707106781186547,0.707106781186547,0.));
#1328=DIRECTION('',(0.,0.,-1.));
#1329=DIRECTION('center_axis',(0.,0.,1.));
#1330=DIRECTION('ref_axis',(0.707106781186547,-0.707106781186547,0.));
#1331=DIRECTION('center_axis',(0.,0.,-1.));
#1332=DIRECTION('ref_axis',(0.707106781186547,-0.707106781186547,0.));
#1333=DIRECTION('',(0.,0.,-1.));
#1334=DIRECTION('',(0.,0.,1.));
#1335=DIRECTION('center_axis',(0.,-1.,0.));
#1336=DIRECTION('ref_axis',(1.,0.,0.));
#1337=DIRECTION('',(1.,0.,0.));
#1338=DIRECTION('',(0.,0.,1.));
#1339=DIRECTION('',(9.69119260322227E-17,0.,-1.));
#1340=DIRECTION('',(-1.,0.,1.24692594019236E-30));
#1341=DIRECTION('',(1.21466191167226E-30,0.,1.));
#1342=DIRECTION('',(1.,0.,-1.24692594019236E-30));
#1343=DIRECTION('center_axis',(0.,0.,1.));
#1344=DIRECTION('ref_axis',(1.,0.,0.));
#1345=DIRECTION('',(0.,-1.,0.));
#1346=DIRECTION('center_axis',(0.,0.,-1.));
#1347=DIRECTION('ref_axis',(-0.707106781186547,-0.707106781186547,0.));
#1348=DIRECTION('',(0.,1.,0.));
#1349=DIRECTION('center_axis',(0.,0.,1.));
#1350=DIRECTION('ref_axis',(-1.,0.,0.));
#1351=DIRECTION('center_axis',(0.,0.,1.));
#1352=DIRECTION('ref_axis',(-1.,0.,0.));
#1353=DIRECTION('',(0.,1.,0.));
#1354=DIRECTION('',(-1.,0.,0.));
#1355=DIRECTION('center_axis',(0.,0.,1.));
#1356=DIRECTION('ref_axis',(-0.707106781186548,-0.707106781186547,0.));
#1357=DIRECTION('',(0.,1.,0.));
#1358=DIRECTION('center_axis',(0.,0.,1.));
#1359=DIRECTION('ref_axis',(-0.707106781186546,0.707106781186549,0.));
#1360=DIRECTION('',(1.,0.,0.));
#1361=DIRECTION('center_axis',(0.,0.,1.));
#1362=DIRECTION('ref_axis',(0.707106781186545,0.70710678118655,0.));
#1363=DIRECTION('',(0.,-1.,0.));
#1364=DIRECTION('center_axis',(0.,0.,1.));
#1365=DIRECTION('ref_axis',(0.707106781186548,-0.707106781186547,0.));
#1366=DIRECTION('',(-1.,0.,0.));
#1367=DIRECTION('',(0.,-1.,0.));
#1368=DIRECTION('',(-1.,0.,0.));
#1369=DIRECTION('',(6.86985415033589E-16,1.,0.));
#1370=DIRECTION('',(1.,0.,0.));
#1371=DIRECTION('center_axis',(0.,0.,1.));
#1372=DIRECTION('ref_axis',(-1.,0.,0.));
#1373=DIRECTION('center_axis',(0.,0.,1.));
#1374=DIRECTION('ref_axis',(-1.,0.,0.));
#1375=DIRECTION('center_axis',(0.,0.,1.));
#1376=DIRECTION('ref_axis',(-0.707106781186547,-0.707106781186547,0.));
#1377=DIRECTION('',(0.,0.,-1.));
#1378=DIRECTION('center_axis',(-1.,0.,0.));
#1379=DIRECTION('ref_axis',(0.,-1.,0.));
#1380=DIRECTION('center_axis',(0.,0.,1.));
#1381=DIRECTION('ref_axis',(-1.,0.,0.));
#1382=DIRECTION('',(-0.707106781186547,-8.65956056235493E-17,-0.707106781186547));
#1383=DIRECTION('center_axis',(0.,0.,-1.));
#1384=DIRECTION('ref_axis',(-1.,0.,0.));
#1385=DIRECTION('center_axis',(0.,0.,-1.));
#1386=DIRECTION('ref_axis',(-1.,0.,0.));
#1387=DIRECTION('',(0.,0.,-1.));
#1388=DIRECTION('center_axis',(0.,0.,-1.));
#1389=DIRECTION('ref_axis',(-1.,0.,0.));
#1390=DIRECTION('center_axis',(0.,0.,1.));
#1391=DIRECTION('ref_axis',(-1.,0.,0.));
#1392=DIRECTION('',(-0.707106781186548,-8.65956056235493E-17,-0.707106781186548));
#1393=DIRECTION('center_axis',(0.,0.,-1.));
#1394=DIRECTION('ref_axis',(-1.,0.,0.));
#1395=DIRECTION('center_axis',(0.,0.,-1.));
#1396=DIRECTION('ref_axis',(-1.,0.,0.));
#1397=DIRECTION('',(0.,0.,-1.));
#1398=DIRECTION('center_axis',(0.,0.,-1.));
#1399=DIRECTION('ref_axis',(-1.,0.,0.));
#1400=DIRECTION('center_axis',(0.,0.,1.));
#1401=DIRECTION('ref_axis',(-1.,0.,0.));
#1402=DIRECTION('',(-0.707106781186548,-8.65956056235493E-17,-0.707106781186548));
#1403=DIRECTION('center_axis',(0.,0.,-1.));
#1404=DIRECTION('ref_axis',(-1.,0.,0.));
#1405=DIRECTION('center_axis',(0.,0.,-1.));
#1406=DIRECTION('ref_axis',(-1.,0.,0.));
#1407=DIRECTION('',(0.,0.,-1.));
#1408=DIRECTION('center_axis',(0.,0.,-1.));
#1409=DIRECTION('ref_axis',(-1.,0.,0.));
#1410=DIRECTION('center_axis',(0.,0.,1.));
#1411=DIRECTION('ref_axis',(-1.,0.,0.));
#1412=DIRECTION('',(-0.707106781186547,-8.65956056235493E-17,-0.707106781186547));
#1413=DIRECTION('center_axis',(0.,0.,-1.));
#1414=DIRECTION('ref_axis',(-1.,0.,0.));
#1415=DIRECTION('center_axis',(0.,0.,-1.));
#1416=DIRECTION('ref_axis',(-1.,0.,0.));
#1417=DIRECTION('',(0.,0.,-1.));
#1418=DIRECTION('center_axis',(0.,0.,-1.));
#1419=DIRECTION('ref_axis',(-1.,0.,0.));
#1420=DIRECTION('center_axis',(0.,0.,1.));
#1421=DIRECTION('ref_axis',(-1.,0.,0.));
#1422=DIRECTION('center_axis',(0.,0.,1.));
#1423=DIRECTION('ref_axis',(-1.,0.,0.));
#1424=DIRECTION('center_axis',(0.,0.,1.));
#1425=DIRECTION('ref_axis',(-1.,0.,0.));
#1426=DIRECTION('center_axis',(0.,0.,1.));
#1427=DIRECTION('ref_axis',(-1.,0.,0.));
#1428=DIRECTION('center_axis',(-0.707106781186555,-0.70710678118654,8.58895674592476E-31));
#1429=DIRECTION('ref_axis',(1.21466191167226E-30,0.,1.));
#1430=DIRECTION('',(-0.577350269189618,0.57735026918963,-0.577350269189629));
#1431=DIRECTION('',(-1.21466191167226E-30,0.,-1.));
#1432=DIRECTION('',(0.577350269189617,-0.57735026918963,-0.57735026918963));
#1433=DIRECTION('center_axis',(0.70710678118655,-0.707106781186545,6.8527080075234E-17));
#1434=DIRECTION('ref_axis',(9.69119260322227E-17,0.,-1.));
#1435=DIRECTION('',(-9.69119260322227E-17,0.,1.));
#1436=DIRECTION('',(-0.577350269189625,-0.577350269189627,0.577350269189625));
#1437=DIRECTION('',(-0.577350269189622,-0.577350269189627,-0.577350269189628));
#1438=DIRECTION('center_axis',(-8.81709787947432E-31,-0.707106781186546,
-0.707106781186549));
#1439=DIRECTION('ref_axis',(-1.,0.,1.24692594019236E-30));
#1440=DIRECTION('',(1.,0.,-1.24692594019236E-30));
#1441=DIRECTION('center_axis',(8.8170978794743E-31,-0.707106781186548,0.707106781186547));
#1442=DIRECTION('ref_axis',(1.,0.,-1.24692594019236E-30));
#1443=DIRECTION('',(-1.,0.,1.24692594019236E-30));
#1444=DIRECTION('center_axis',(1.24692594019236E-30,2.02937992894056E-16,
1.));
#1445=DIRECTION('ref_axis',(-1.,1.59594559789867E-16,1.2145381405518E-30));
#1446=DIRECTION('',(-1.58545306948481E-16,-1.,2.02937992894056E-16));
#1447=DIRECTION('',(-1.,0.,1.24692594019236E-30));
#1448=DIRECTION('',(-1.58545306948481E-16,-1.,2.02937992894056E-16));
#1449=DIRECTION('center_axis',(-1.,1.58545306948481E-16,-9.69119260322227E-17));
#1450=DIRECTION('ref_axis',(9.69119260322227E-17,-1.1796119636642E-16,-1.));
#1451=DIRECTION('',(-1.58545306948481E-16,-1.,2.02937992894056E-16));
#1452=DIRECTION('',(9.69119260322227E-17,0.,-1.));
#1453=DIRECTION('center_axis',(-1.24692594019236E-30,-2.02937992894056E-16,
-1.));
#1454=DIRECTION('ref_axis',(1.,-1.59594559789867E-16,-1.2145381405518E-30));
#1455=DIRECTION('',(-1.58545306948481E-16,-1.,2.02937992894056E-16));
#1456=DIRECTION('',(1.,0.,-1.24692594019236E-30));
#1457=DIRECTION('center_axis',(1.,-1.58545306948481E-16,-1.21466191167226E-30));
#1458=DIRECTION('ref_axis',(1.23336410575818E-30,1.1796119636642E-16,1.));
#1459=DIRECTION('',(1.21466191167226E-30,0.,1.));
#1460=DIRECTION('center_axis',(0.,0.,1.));
#1461=DIRECTION('ref_axis',(-0.707106781186546,0.707106781186549,0.));
#1462=DIRECTION('center_axis',(0.,0.,1.));
#1463=DIRECTION('ref_axis',(-0.707106781186546,0.707106781186549,0.));
#1464=DIRECTION('',(0.,0.,1.));
#1465=DIRECTION('',(0.,0.,-1.));
#1466=DIRECTION('center_axis',(0.,0.,1.));
#1467=DIRECTION('ref_axis',(1.,0.,0.));
#1468=DIRECTION('',(0.,1.,0.));
#1469=DIRECTION('',(1.,0.,0.));
#1470=DIRECTION('',(0.,1.,0.));
#1471=DIRECTION('',(1.,0.,0.));
#1472=DIRECTION('center_axis',(0.,0.,1.));
#1473=DIRECTION('ref_axis',(1.,0.,0.));
#1474=DIRECTION('center_axis',(1.,0.,0.));
#1475=DIRECTION('ref_axis',(0.,1.,0.));
#1476=DIRECTION('',(0.,0.,1.));
#1477=DIRECTION('',(0.,1.,0.));
#1478=DIRECTION('',(0.,0.,-1.));
#1479=DIRECTION('',(0.,-1.,0.));
#1480=DIRECTION('',(0.,0.,1.));
#1481=DIRECTION('center_axis',(0.,0.,1.));
#1482=DIRECTION('ref_axis',(0.707106781186545,0.70710678118655,0.));
#1483=DIRECTION('center_axis',(0.,0.,1.));
#1484=DIRECTION('ref_axis',(0.707106781186545,0.70710678118655,0.));
#1485=DIRECTION('',(0.,0.,1.));
#1486=DIRECTION('',(0.,0.,-1.));
#1487=DIRECTION('center_axis',(-1.,0.,0.));
#1488=DIRECTION('ref_axis',(0.,-1.,0.));
#1489=DIRECTION('',(0.,-1.,0.));
#1490=DIRECTION('',(0.,0.,-1.));
#1491=DIRECTION('',(0.,1.,0.));
#1492=DIRECTION('',(0.,0.,1.));
#1493=DIRECTION('',(0.,-1.,0.));
#1494=DIRECTION('',(0.,0.,-1.));
#1495=DIRECTION('center_axis',(0.,0.,1.));
#1496=DIRECTION('ref_axis',(0.707106781186548,-0.707106781186547,0.));
#1497=DIRECTION('center_axis',(0.,0.,1.));
#1498=DIRECTION('ref_axis',(0.707106781186548,-0.707106781186547,0.));
#1499=DIRECTION('',(0.,0.,1.));
#1500=DIRECTION('center_axis',(0.,1.,0.));
#1501=DIRECTION('ref_axis',(-1.,0.,0.));
#1502=DIRECTION('',(-1.,0.,0.));
#1503=DIRECTION('',(0.,0.,-1.));
#1504=DIRECTION('',(1.,0.,0.));
#1505=DIRECTION('',(0.,0.,1.));
#1506=DIRECTION('',(-1.,0.,0.));
#1507=DIRECTION('',(0.,0.,-1.));
#1508=DIRECTION('',(0.,0.,-1.));
#1509=DIRECTION('',(1.,0.,0.));
#1510=DIRECTION('',(0.,0.,1.));
#1511=DIRECTION('center_axis',(0.,0.,1.));
#1512=DIRECTION('ref_axis',(-0.707106781186548,-0.707106781186547,0.));
#1513=DIRECTION('center_axis',(0.,0.,1.));
#1514=DIRECTION('ref_axis',(-0.707106781186548,-0.707106781186547,0.));
#1515=DIRECTION('center_axis',(0.,0.,1.));
#1516=DIRECTION('ref_axis',(1.,0.,0.));
#1517=DIRECTION('center_axis',(0.,0.,1.));
#1518=DIRECTION('ref_axis',(1.,0.,0.));
#1519=DIRECTION('',(0.707106781186548,8.65956056235493E-17,-0.707106781186548));
#1520=DIRECTION('center_axis',(0.,0.,-1.));
#1521=DIRECTION('ref_axis',(1.,0.,0.));
#1522=DIRECTION('center_axis',(0.,0.,-1.));
#1523=DIRECTION('ref_axis',(1.,0.,0.));
#1524=DIRECTION('',(0.,0.,-1.));
#1525=DIRECTION('center_axis',(0.,0.,-1.));
#1526=DIRECTION('ref_axis',(1.,0.,0.));
#1527=DIRECTION('center_axis',(0.,0.,1.));
#1528=DIRECTION('ref_axis',(1.,0.,0.));
#1529=DIRECTION('',(-1.,0.,0.));
#1530=DIRECTION('',(0.,-1.,0.));
#1531=DIRECTION('center_axis',(0.,0.,1.));
#1532=DIRECTION('ref_axis',(1.,0.,0.));
#1533=DIRECTION('center_axis',(0.,0.,1.));
#1534=DIRECTION('ref_axis',(1.,0.,0.));
#1535=DIRECTION('',(0.707106781186548,8.65956056235493E-17,-0.707106781186548));
#1536=DIRECTION('center_axis',(0.,0.,-1.));
#1537=DIRECTION('ref_axis',(1.,0.,0.));
#1538=DIRECTION('center_axis',(0.,0.,-1.));
#1539=DIRECTION('ref_axis',(1.,0.,0.));
#1540=DIRECTION('',(0.,0.,-1.));
#1541=DIRECTION('center_axis',(0.,0.,-1.));
#1542=DIRECTION('ref_axis',(1.,0.,0.));
#1543=DIRECTION('center_axis',(0.,0.,1.));
#1544=DIRECTION('ref_axis',(1.,0.,0.));
#1545=DIRECTION('',(1.,0.,0.));
#1546=DIRECTION('',(0.,-1.,0.));
#1547=DIRECTION('',(1.,0.,0.));
#1548=DIRECTION('center_axis',(0.,0.,1.));
#1549=DIRECTION('ref_axis',(1.,0.,0.));
#1550=DIRECTION('center_axis',(0.,0.,1.));
#1551=DIRECTION('ref_axis',(1.,0.,0.));
#1552=DIRECTION('',(0.707106781186549,8.65956056235495E-17,-0.707106781186546));
#1553=DIRECTION('center_axis',(0.,0.,-1.));
#1554=DIRECTION('ref_axis',(1.,0.,0.));
#1555=DIRECTION('center_axis',(0.,0.,-1.));
#1556=DIRECTION('ref_axis',(1.,0.,0.));
#1557=DIRECTION('',(0.,0.,-1.));
#1558=DIRECTION('center_axis',(0.,0.,-1.));
#1559=DIRECTION('ref_axis',(1.,0.,0.));
#1560=DIRECTION('center_axis',(0.,0.,1.));
#1561=DIRECTION('ref_axis',(1.,0.,0.));
#1562=DIRECTION('',(0.,1.,0.));
#1563=DIRECTION('',(-1.,0.,0.));
#1564=DIRECTION('center_axis',(0.,0.,1.));
#1565=DIRECTION('ref_axis',(1.,0.,0.));
#1566=DIRECTION('',(0.707106781186549,8.65956056235495E-17,-0.707106781186546));
#1567=DIRECTION('center_axis',(0.,0.,-1.));
#1568=DIRECTION('ref_axis',(1.,0.,0.));
#1569=DIRECTION('center_axis',(0.,0.,-1.));
#1570=DIRECTION('ref_axis',(1.,0.,0.));
#1571=DIRECTION('',(0.,0.,-1.));
#1572=DIRECTION('center_axis',(0.,0.,-1.));
#1573=DIRECTION('ref_axis',(1.,0.,0.));
#1574=DIRECTION('center_axis',(0.,0.,1.));
#1575=DIRECTION('ref_axis',(1.,0.,0.));
#1576=DIRECTION('center_axis',(0.,0.,1.));
#1577=DIRECTION('ref_axis',(1.,0.,0.));
#1578=DIRECTION('center_axis',(0.,0.,1.));
#1579=DIRECTION('ref_axis',(1.,0.,0.));
#1580=DIRECTION('center_axis',(0.,0.,1.));
#1581=DIRECTION('ref_axis',(1.,0.,0.));
#1582=DIRECTION('center_axis',(0.,-1.,0.));
#1583=DIRECTION('ref_axis',(1.,0.,0.));
#1584=DIRECTION('',(-1.,0.,0.));
#1585=DIRECTION('',(0.,0.,1.));
#1586=DIRECTION('center_axis',(-1.,0.,0.));
#1587=DIRECTION('ref_axis',(0.,-1.,0.));
#1588=DIRECTION('',(0.,1.,0.));
#1589=DIRECTION('',(0.,0.,1.));
#1590=DIRECTION('center_axis',(0.,0.,1.));
#1591=DIRECTION('ref_axis',(1.,0.,0.));
#1592=DIRECTION('',(-1.,0.,0.));
#1593=DIRECTION('',(0.,-1.,0.));
#1594=DIRECTION('',(-1.,0.,0.));
#1595=DIRECTION('',(1.,0.,0.));
#1596=DIRECTION('',(0.,-1.,0.));
#1597=DIRECTION('',(0.,1.,0.));
#1598=DIRECTION('',(1.,0.,0.));
#1599=DIRECTION('center_axis',(-1.,0.,0.));
#1600=DIRECTION('ref_axis',(0.,-1.,0.));
#1601=DIRECTION('',(0.,0.,1.));
#1602=DIRECTION('center_axis',(0.,1.,0.));
#1603=DIRECTION('ref_axis',(-1.,0.,0.));
#1604=DIRECTION('center_axis',(1.,0.,0.));
#1605=DIRECTION('ref_axis',(0.,1.,0.));
#1606=DIRECTION('',(0.,0.,-1.));
#1607=DIRECTION('',(0.,0.,1.));
#1608=DIRECTION('center_axis',(0.,-1.,0.));
#1609=DIRECTION('ref_axis',(1.,0.,0.));
#1610=DIRECTION('center_axis',(0.,1.,0.));
#1611=DIRECTION('ref_axis',(-1.,0.,0.));
#1612=DIRECTION('',(0.,0.,1.));
#1613=DIRECTION('center_axis',(1.,0.,0.));
#1614=DIRECTION('ref_axis',(0.,1.,0.));
#1615=DIRECTION('center_axis',(0.,1.,0.));
#1616=DIRECTION('ref_axis',(-1.,0.,0.));
#1617=DIRECTION('',(0.,0.,1.));
#1618=DIRECTION('',(1.,0.,0.));
#1619=DIRECTION('',(0.,0.,1.));
#1620=DIRECTION('center_axis',(-1.,0.,0.));
#1621=DIRECTION('ref_axis',(0.,-1.,0.));
#1622=DIRECTION('',(0.,1.,0.));
#1623=DIRECTION('center_axis',(0.,0.,1.));
#1624=DIRECTION('ref_axis',(1.,0.,0.));
#1625=DIRECTION('',(6.86985415033589E-16,1.,0.));
#1626=DIRECTION('',(-1.,0.,0.));
#1627=DIRECTION('',(0.,-1.,0.));
#1628=DIRECTION('center_axis',(1.,0.,0.));
#1629=DIRECTION('ref_axis',(0.,1.,0.));
#1630=DIRECTION('',(0.,0.,1.));
#1631=DIRECTION('center_axis',(0.,-1.,0.));
#1632=DIRECTION('ref_axis',(1.,0.,0.));
#1633=DIRECTION('',(0.,0.,1.));
#1634=DIRECTION('center_axis',(-1.,6.86985415033589E-16,0.));
#1635=DIRECTION('ref_axis',(-6.86985415033589E-16,-1.,0.));
#1636=DIRECTION('center_axis',(0.,-1.,0.));
#1637=DIRECTION('ref_axis',(1.,0.,0.));
#1638=DIRECTION('center_axis',(1.,0.,0.));
#1639=DIRECTION('ref_axis',(0.,1.,0.));
#1640=CARTESIAN_POINT('',(0.,0.,0.));
#1641=CARTESIAN_POINT('Origin',(-19.5442586892018,65.8680963407537,3.));
#1642=CARTESIAN_POINT('',(-24.5442586892018,65.8680963407537,33.));
#1643=CARTESIAN_POINT('',(-19.5442586892018,70.8680963407537,33.));
#1644=CARTESIAN_POINT('Origin',(-19.5442586892018,65.8680963407537,33.));
#1645=CARTESIAN_POINT('',(-19.5442586892018,70.8680963407537,0.));
#1646=CARTESIAN_POINT('',(-19.5442586892018,70.8680963407537,3.));
#1647=CARTESIAN_POINT('',(-24.5442586892018,65.8680963407537,0.));
#1648=CARTESIAN_POINT('Origin',(-19.5442586892018,65.8680963407537,0.));
#1649=CARTESIAN_POINT('',(-24.5442586892018,65.8680963407537,3.));
#1650=CARTESIAN_POINT('Origin',(31.4557413107966,35.9273463407537,0.));
#1651=CARTESIAN_POINT('',(82.4557413107949,70.8680963407537,0.));
#1652=CARTESIAN_POINT('',(-24.5442586892018,70.8680963407537,0.));
#1653=CARTESIAN_POINT('',(87.4557413107949,65.8680963407537,0.));
#1654=CARTESIAN_POINT('Origin',(82.4557413107949,65.8680963407537,0.));
#1655=CARTESIAN_POINT('',(87.4557413107949,5.98659634075368,0.));
#1656=CARTESIAN_POINT('',(87.4557413107949,70.8680963407537,0.));
#1657=CARTESIAN_POINT('',(82.4557413107949,0.986596340753678,0.));
#1658=CARTESIAN_POINT('Origin',(82.4557413107949,5.98659634075368,0.));
#1659=CARTESIAN_POINT('',(-19.5442586892018,0.986596340753678,0.));
#1660=CARTESIAN_POINT('',(87.4557413107949,0.986596340753678,0.));
#1661=CARTESIAN_POINT('',(-24.5442586892018,5.98659634075368,0.));
#1662=CARTESIAN_POINT('Origin',(-19.5442586892018,5.98659634075368,0.));
#1663=CARTESIAN_POINT('',(-24.5442586892018,0.986596340753678,0.));
#1664=CARTESIAN_POINT('Origin',(87.4557413107949,70.8680963407537,3.));
#1665=CARTESIAN_POINT('',(82.4557413107949,70.8680963407537,33.));
#1666=CARTESIAN_POINT('',(59.4557413107957,70.8680963407537,33.));
#1667=CARTESIAN_POINT('',(82.4557413107949,70.8680963407537,3.));
#1668=CARTESIAN_POINT('Origin',(82.4557413107949,65.8680963407537,3.));
#1669=CARTESIAN_POINT('',(87.4557413107949,65.8680963407537,33.));
#1670=CARTESIAN_POINT('Origin',(82.4557413107949,65.8680963407537,33.));
#1671=CARTESIAN_POINT('',(87.4557413107949,65.8680963407537,3.));
#1672=CARTESIAN_POINT('Origin',(82.4557413107949,5.98659634075368,3.));
#1673=CARTESIAN_POINT('',(87.4557413107949,5.98659634075368,33.));
#1674=CARTESIAN_POINT('',(82.4557413107949,0.986596340753678,33.));
#1675=CARTESIAN_POINT('Origin',(82.4557413107949,5.98659634075368,33.));
#1676=CARTESIAN_POINT('',(82.4557413107949,0.986596340753678,3.));
#1677=CARTESIAN_POINT('',(87.4557413107949,5.98659634075368,3.));
#1678=CARTESIAN_POINT('Origin',(-24.5442586892018,0.986596340753678,3.));
#1679=CARTESIAN_POINT('',(-19.5442586892018,0.986596340753678,33.));
#1680=CARTESIAN_POINT('',(3.4557413107974,0.986596340753678,33.));
#1681=CARTESIAN_POINT('',(-19.5442586892018,0.986596340753678,3.));
#1682=CARTESIAN_POINT('',(0.620987493395747,0.986596340753678,27.1305501270373));
#1683=CARTESIAN_POINT('',(0.620987493395748,0.986596340753678,8.23055012703728));
#1684=CARTESIAN_POINT('',(0.620987493395748,0.986596340753678,14.8152750635186));
#1685=CARTESIAN_POINT('',(64.1209874933957,0.986596340753678,27.1305501270373));
#1686=CARTESIAN_POINT('',(19.538364402097,0.986596340753678,27.1305501270373));
#1687=CARTESIAN_POINT('',(64.1209874933957,0.986596340753678,8.23055012703728));
#1688=CARTESIAN_POINT('',(64.1209874933957,0.986596340753678,5.86527506351864));
#1689=CARTESIAN_POINT('',(-11.711635597903,0.986596340753678,8.23055012703728));
#1690=CARTESIAN_POINT('Origin',(31.4557413107966,35.9273463407537,33.));
#1691=CARTESIAN_POINT('',(-24.5442586892018,5.98659634075368,33.));
#1692=CARTESIAN_POINT('',(-24.5442586892018,53.3977213407537,33.));
#1693=CARTESIAN_POINT('Origin',(-19.5442586892018,5.98659634075368,33.));
#1694=CARTESIAN_POINT('',(87.4557413107949,18.4569713407537,33.));
#1695=CARTESIAN_POINT('',(85.6059620420121,5.93631200837824,33.));
#1696=CARTESIAN_POINT('Origin',(82.5059620420121,5.93631200837824,33.));
#1697=CARTESIAN_POINT('',(-16.4945430215772,65.9183170719709,33.));
#1698=CARTESIAN_POINT('Origin',(-19.5945430215772,65.9183170719709,33.));
#1699=CARTESIAN_POINT('',(64.0719638768699,7.31443740308286,33.));
#1700=CARTESIAN_POINT('',(64.0719638768699,10.4865963407537,33.));
#1701=CARTESIAN_POINT('',(64.0719638768699,25.810983129865,33.));
#1702=CARTESIAN_POINT('',(-13.5442586892017,10.4865963407537,33.));
#1703=CARTESIAN_POINT('',(55.4557413107957,10.4865963407537,33.));
#1704=CARTESIAN_POINT('',(-16.5442586892018,13.4865963407537,33.));
#1705=CARTESIAN_POINT('Origin',(-13.5442586892017,13.4865963407537,33.));
#1706=CARTESIAN_POINT('',(-16.5442586892018,59.8680963407537,33.));
#1707=CARTESIAN_POINT('',(-16.5442586892018,23.2069713407537,33.));
#1708=CARTESIAN_POINT('',(-13.5442586892017,62.8680963407537,33.));
#1709=CARTESIAN_POINT('Origin',(-13.5442586892017,59.8680963407537,33.));
#1710=CARTESIAN_POINT('',(76.4557413107949,62.8680963407537,33.));
#1711=CARTESIAN_POINT('',(7.4557413107974,62.8680963407537,33.));
#1712=CARTESIAN_POINT('',(79.4557413107948,59.8680963407537,33.));
#1713=CARTESIAN_POINT('Origin',(76.4557413107949,59.8680963407537,33.));
#1714=CARTESIAN_POINT('',(79.4557413107948,13.4865963407537,33.));
#1715=CARTESIAN_POINT('',(79.4557413107948,49.3977213407537,33.));
#1716=CARTESIAN_POINT('',(76.4557413107948,10.4865963407537,33.));
#1717=CARTESIAN_POINT('Origin',(76.4557413107948,13.4865963407537,33.));
#1718=CARTESIAN_POINT('',(67.6609874933958,10.4865963407537,33.));
#1719=CARTESIAN_POINT('',(55.4557413107957,10.4865963407537,33.));
#1720=CARTESIAN_POINT('',(67.6609874933958,2.75443740308286,33.));
#1721=CARTESIAN_POINT('',(67.6609874933958,19.3408918719183,33.));
#1722=CARTESIAN_POINT('',(-6.4890125066042,2.75443740308286,33.));
#1723=CARTESIAN_POINT('',(12.4833644020962,2.75443740308286,33.));
#1724=CARTESIAN_POINT('',(-6.4890125066042,7.31443740308286,33.));
#1725=CARTESIAN_POINT('',(-6.48901250660419,21.6208918719183,33.));
#1726=CARTESIAN_POINT('',(47.7638525938332,7.31443740308286,33.));
#1727=CARTESIAN_POINT('',(85.6059620420121,65.9183806731291,33.));
#1728=CARTESIAN_POINT('Origin',(82.5059620420121,65.9183806731291,33.));
#1729=CARTESIAN_POINT('',(-16.4945430215772,5.93637560953647,33.));
#1730=CARTESIAN_POINT('Origin',(-19.5945430215772,5.93637560953647,33.));
#1731=CARTESIAN_POINT('Origin',(-19.5442586892018,5.98659634075368,3.));
#1732=CARTESIAN_POINT('',(-24.5442586892018,5.98659634075368,3.));
#1733=CARTESIAN_POINT('Origin',(-24.5442586892018,70.8680963407537,3.));
#1734=CARTESIAN_POINT('Origin',(-19.5945430215772,5.93637560953647,32.625));
#1735=CARTESIAN_POINT('',(-17.2445430215772,5.93637560953647,32.25));
#1736=CARTESIAN_POINT('',(-16.8695430215772,5.93637560953647,32.625));
#1737=CARTESIAN_POINT('Origin',(-19.5945430215772,5.93637560953647,32.25));
#1738=CARTESIAN_POINT('Origin',(-19.5945430215772,5.93637560953647,33.));
#1739=CARTESIAN_POINT('',(-17.2445430215772,5.93637560953647,27.6));
#1740=CARTESIAN_POINT('',(-17.2445430215772,5.93637560953647,33.));
#1741=CARTESIAN_POINT('Origin',(-19.5945430215772,5.93637560953647,27.6));
#1742=CARTESIAN_POINT('Origin',(82.5059620420121,5.93631200837824,32.625));
#1743=CARTESIAN_POINT('',(84.8559620420121,5.93631200837824,32.25));
#1744=CARTESIAN_POINT('',(85.2309620420121,5.93631200837824,32.625));
#1745=CARTESIAN_POINT('Origin',(82.5059620420121,5.93631200837824,32.25));
#1746=CARTESIAN_POINT('Origin',(82.5059620420121,5.93631200837824,33.));
#1747=CARTESIAN_POINT('',(84.8559620420121,5.93631200837824,27.6));
#1748=CARTESIAN_POINT('',(84.8559620420121,5.93631200837824,33.));
#1749=CARTESIAN_POINT('Origin',(82.5059620420121,5.93631200837824,27.6));
#1750=CARTESIAN_POINT('Origin',(82.5059620420121,65.9183806731291,32.625));
#1751=CARTESIAN_POINT('',(84.8559620420121,65.9183806731291,32.25));
#1752=CARTESIAN_POINT('',(85.2309620420121,65.9183806731291,32.625));
#1753=CARTESIAN_POINT('Origin',(82.5059620420121,65.9183806731291,32.25));
#1754=CARTESIAN_POINT('Origin',(82.5059620420121,65.9183806731291,33.));
#1755=CARTESIAN_POINT('',(84.8559620420121,65.9183806731291,27.6));
#1756=CARTESIAN_POINT('',(84.8559620420121,65.9183806731291,33.));
#1757=CARTESIAN_POINT('Origin',(82.5059620420121,65.9183806731291,27.6));
#1758=CARTESIAN_POINT('Origin',(-19.5945430215772,65.9183170719709,32.625));
#1759=CARTESIAN_POINT('',(-17.2445430215772,65.9183170719709,32.25));
#1760=CARTESIAN_POINT('',(-16.8695430215772,65.9183170719709,32.625));
#1761=CARTESIAN_POINT('Origin',(-19.5945430215772,65.9183170719709,32.25));
#1762=CARTESIAN_POINT('Origin',(-19.5945430215772,65.9183170719709,33.));
#1763=CARTESIAN_POINT('',(-17.2445430215772,65.9183170719709,27.6));
#1764=CARTESIAN_POINT('',(-17.2445430215772,65.9183170719709,33.));
#1765=CARTESIAN_POINT('Origin',(-19.5945430215772,65.9183170719709,27.6));
#1766=CARTESIAN_POINT('Origin',(-19.5945430215772,5.93637560953647,27.6));
#1767=CARTESIAN_POINT('Origin',(82.5059620420121,5.93631200837824,27.6));
#1768=CARTESIAN_POINT('Origin',(-19.5945430215772,65.9183170719709,27.6));
#1769=CARTESIAN_POINT('Origin',(82.5059620420121,65.9183806731291,27.6));
#1770=CARTESIAN_POINT('Origin',(63.8709874933957,1.23659634075368,5.86527506351864));
#1771=CARTESIAN_POINT('',(63.6209874933957,1.48659634075368,26.6305501270373));
#1772=CARTESIAN_POINT('',(64.1209874933957,0.986596340753678,27.1305501270373));
#1773=CARTESIAN_POINT('',(63.6209874933957,1.48659634075368,8.73055012703728));
#1774=CARTESIAN_POINT('',(63.6209874933957,1.48659634075368,5.86527506351864));
#1775=CARTESIAN_POINT('',(63.6209874933957,1.48659634075368,8.73055012703728));
#1776=CARTESIAN_POINT('Origin',(0.870987493395746,1.23659634075368,14.8152750635186));
#1777=CARTESIAN_POINT('',(1.12098749339574,1.48659634075368,8.73055012703728));
#1778=CARTESIAN_POINT('',(1.12098749339574,1.48659634075368,26.6305501270373));
#1779=CARTESIAN_POINT('',(1.12098749339574,1.48659634075368,14.8152750635186));
#1780=CARTESIAN_POINT('',(1.12098749339574,1.48659634075368,26.6305501270373));
#1781=CARTESIAN_POINT('',(1.12098749339574,1.48659634075368,8.73055012703728));
#1782=CARTESIAN_POINT('Origin',(19.538364402097,1.23659634075368,26.8805501270373));
#1783=CARTESIAN_POINT('',(19.538364402097,1.48659634075368,26.6305501270373));
#1784=CARTESIAN_POINT('Origin',(-11.711635597903,1.23659634075368,8.48055012703728));
#1785=CARTESIAN_POINT('',(-11.711635597903,1.48659634075368,8.73055012703728));
#1786=CARTESIAN_POINT('Origin',(63.6209874933957,3.25443740308287,26.6305501270373));
#1787=CARTESIAN_POINT('',(1.12098749339574,2.75443740308286,26.6305501270373));
#1788=CARTESIAN_POINT('',(1.12098749339574,3.25443740308288,26.6305501270373));
#1789=CARTESIAN_POINT('',(63.6209874933957,2.75443740308286,26.6305501270373));
#1790=CARTESIAN_POINT('',(28.5659874933958,2.75443740308286,26.6305501270373));
#1791=CARTESIAN_POINT('',(63.6209874933957,3.25443740308287,26.6305501270373));
#1792=CARTESIAN_POINT('Origin',(1.12098749339574,3.25443740308288,26.6305501270373));
#1793=CARTESIAN_POINT('',(1.12098749339574,2.75443740308286,8.73055012703728));
#1794=CARTESIAN_POINT('',(1.12098749339574,3.25443740308287,8.73055012703728));
#1795=CARTESIAN_POINT('',(1.12098749339574,2.75443740308286,16.8152750635186));
#1796=CARTESIAN_POINT('Origin',(1.12098749339574,3.25443740308287,8.73055012703728));
#1797=CARTESIAN_POINT('',(63.6209874933957,2.75443740308286,8.73055012703728));
#1798=CARTESIAN_POINT('',(63.6209874933957,3.25443740308287,8.73055012703728));
#1799=CARTESIAN_POINT('',(-2.68401250660423,2.75443740308286,8.73055012703728));
#1800=CARTESIAN_POINT('Origin',(63.6209874933957,3.25443740308287,8.73055012703728));
#1801=CARTESIAN_POINT('',(63.6209874933957,2.75443740308286,7.86527506351864));
#1802=CARTESIAN_POINT('Origin',(-13.5442586892017,59.8680963407537,3.));
#1803=CARTESIAN_POINT('',(-13.5442586892017,62.8680963407537,29.));
#1804=CARTESIAN_POINT('',(-16.5442586892018,59.8680963407537,29.));
#1805=CARTESIAN_POINT('Origin',(-13.5442586892017,59.8680963407537,29.));
#1806=CARTESIAN_POINT('',(-13.5442586892017,62.8680963407537,3.));
#1807=CARTESIAN_POINT('',(-16.5442586892018,59.8680963407537,3.));
#1808=CARTESIAN_POINT('Origin',(-13.0442586892018,58.6770963407537,29.));
#1809=CARTESIAN_POINT('',(-16.5442586892018,54.4860963407537,29.));
#1810=CARTESIAN_POINT('',(-16.5442586892018,34.5818463407537,29.));
#1811=CARTESIAN_POINT('',(-9.54425868920175,54.4860963407537,29.));
#1812=CARTESIAN_POINT('',(-9.54425868920175,54.4860963407537,29.));
#1813=CARTESIAN_POINT('',(-9.54425868920175,62.8680963407537,29.));
#1814=CARTESIAN_POINT('',(-9.54425868920175,62.8680963407537,29.));
#1815=CARTESIAN_POINT('',(-14.7942586892018,62.8680963407537,29.));
#1816=CARTESIAN_POINT('',(-15.594258689202,57.7365963407537,29.));
#1817=CARTESIAN_POINT('Origin',(-12.794258689202,57.7365963407537,29.));
#1818=CARTESIAN_POINT('Origin',(-16.5442586892018,10.4865963407537,3.));
#1819=CARTESIAN_POINT('',(-16.5442586892018,13.4865963407537,29.));
#1820=CARTESIAN_POINT('',(-16.5442586892018,13.4865963407537,3.));
#1821=CARTESIAN_POINT('',(-16.5442586892018,18.8685963407537,29.));
#1822=CARTESIAN_POINT('',(-16.5442586892018,12.5820963407537,29.));
#1823=CARTESIAN_POINT('',(-16.5442586892018,18.8685963407537,3.));
#1824=CARTESIAN_POINT('',(-16.5442586892018,18.8685963407537,3.));
#1825=CARTESIAN_POINT('',(-16.5442586892018,54.4860963407537,3.));
#1826=CARTESIAN_POINT('',(-16.5442586892018,23.2069713407537,3.));
#1827=CARTESIAN_POINT('',(-16.5442586892018,54.4860963407537,3.));
#1828=CARTESIAN_POINT('Origin',(76.4557413107949,59.8680963407537,3.));
#1829=CARTESIAN_POINT('',(79.4557413107948,59.8680963407537,29.));
#1830=CARTESIAN_POINT('',(76.4557413107949,62.8680963407537,29.));
#1831=CARTESIAN_POINT('Origin',(76.4557413107949,59.8680963407537,29.));
#1832=CARTESIAN_POINT('',(79.4557413107948,59.8680963407537,3.));
#1833=CARTESIAN_POINT('',(76.4557413107949,62.8680963407537,3.));
#1834=CARTESIAN_POINT('Origin',(79.4557413107948,62.8680963407537,3.));
#1835=CARTESIAN_POINT('',(79.4557413107948,54.4860963407537,29.));
#1836=CARTESIAN_POINT('',(79.4557413107948,60.7725963407537,29.));
#1837=CARTESIAN_POINT('',(79.4557413107948,54.4860963407537,3.));
#1838=CARTESIAN_POINT('',(79.4557413107948,54.4860963407537,3.));
#1839=CARTESIAN_POINT('',(79.4557413107948,18.8685963407537,3.));
#1840=CARTESIAN_POINT('',(79.4557413107948,49.3977213407537,3.));
#1841=CARTESIAN_POINT('',(79.4557413107948,18.8685963407537,29.));
#1842=CARTESIAN_POINT('',(79.4557413107948,18.8685963407537,3.));
#1843=CARTESIAN_POINT('',(79.4557413107948,13.4865963407537,29.));
#1844=CARTESIAN_POINT('',(79.4557413107948,38.7728463407537,29.));
#1845=CARTESIAN_POINT('',(79.4557413107948,13.4865963407537,3.));
#1846=CARTESIAN_POINT('Origin',(76.4557413107948,13.4865963407537,3.));
#1847=CARTESIAN_POINT('',(76.4557413107948,10.4865963407537,29.));
#1848=CARTESIAN_POINT('Origin',(76.4557413107948,13.4865963407537,29.));
#1849=CARTESIAN_POINT('',(76.4557413107948,10.4865963407537,3.));
#1850=CARTESIAN_POINT('Origin',(79.4557413107948,10.4865963407537,3.));
#1851=CARTESIAN_POINT('',(72.4557413107979,10.4865963407537,29.));
#1852=CARTESIAN_POINT('',(77.7057413107956,10.4865963407537,29.));
#1853=CARTESIAN_POINT('',(72.4557413107979,10.4865963407537,3.));
#1854=CARTESIAN_POINT('',(72.4557413107979,10.4865963407537,3.));
#1855=CARTESIAN_POINT('',(-9.54425868920175,10.4865963407537,3.));
#1856=CARTESIAN_POINT('',(55.4557413107957,10.4865963407537,3.));
#1857=CARTESIAN_POINT('',(-9.54425868920175,10.4865963407537,29.));
#1858=CARTESIAN_POINT('',(-9.54425868920175,10.4865963407537,3.));
#1859=CARTESIAN_POINT('',(-13.5442586892017,10.4865963407537,29.));
#1860=CARTESIAN_POINT('',(33.2057413107966,10.4865963407537,29.));
#1861=CARTESIAN_POINT('',(-13.5442586892017,10.4865963407537,3.));
#1862=CARTESIAN_POINT('',(64.0719638768699,10.4865963407537,7.));
#1863=CARTESIAN_POINT('',(64.0719638768699,10.4865963407537,5.));
#1864=CARTESIAN_POINT('',(67.6609874933958,10.4865963407537,7.));
#1865=CARTESIAN_POINT('',(55.0208644020953,10.4865963407537,7.));
#1866=CARTESIAN_POINT('',(67.6609874933958,10.4865963407537,5.));
#1867=CARTESIAN_POINT('Origin',(-13.5442586892017,13.4865963407537,3.));
#1868=CARTESIAN_POINT('Origin',(-13.5442586892017,13.4865963407537,29.));
#1869=CARTESIAN_POINT('Origin',(75.7057413107981,14.2365963407537,28.75));
#1870=CARTESIAN_POINT('',(72.9057413107981,14.2365963407537,29.));
#1871=CARTESIAN_POINT('Origin',(75.7057413107981,14.2365963407537,29.));
#1872=CARTESIAN_POINT('',(73.4057413107981,14.2365963407537,28.5));
#1873=CARTESIAN_POINT('',(73.1557413107981,14.2365963407537,28.75));
#1874=CARTESIAN_POINT('Origin',(75.7057413107981,14.2365963407537,28.5));
#1875=CARTESIAN_POINT('Origin',(75.7057413107981,14.2365963407537,29.));
#1876=CARTESIAN_POINT('',(73.4057413107981,14.2365963407537,23.6));
#1877=CARTESIAN_POINT('',(73.4057413107981,14.2365963407537,29.));
#1878=CARTESIAN_POINT('Origin',(75.7057413107981,14.2365963407537,23.6));
#1879=CARTESIAN_POINT('Origin',(75.9557413107964,14.6775963407537,29.));
#1880=CARTESIAN_POINT('',(72.4557413107979,18.8685963407537,29.));
#1881=CARTESIAN_POINT('',(72.4557413107979,18.8685963407537,29.));
#1882=CARTESIAN_POINT('',(72.4557413107979,10.4865963407537,29.));
#1883=CARTESIAN_POINT('Origin',(75.7057413107981,57.7365963407537,28.75));
#1884=CARTESIAN_POINT('',(72.9057413107981,57.7365963407537,29.));
#1885=CARTESIAN_POINT('Origin',(75.7057413107981,57.7365963407537,29.));
#1886=CARTESIAN_POINT('',(73.4057413107981,57.7365963407537,28.5));
#1887=CARTESIAN_POINT('',(73.1557413107981,57.7365963407537,28.75));
#1888=CARTESIAN_POINT('Origin',(75.7057413107981,57.7365963407537,28.5));
#1889=CARTESIAN_POINT('Origin',(75.7057413107981,57.7365963407537,29.));
#1890=CARTESIAN_POINT('',(73.4057413107981,57.7365963407537,23.6));
#1891=CARTESIAN_POINT('',(73.4057413107981,57.7365963407537,29.));
#1892=CARTESIAN_POINT('Origin',(75.7057413107981,57.7365963407537,23.6));
#1893=CARTESIAN_POINT('Origin',(75.9557413107964,58.6770963407537,29.));
#1894=CARTESIAN_POINT('',(72.4557413107979,62.8680963407537,29.));
#1895=CARTESIAN_POINT('',(29.7057413107973,62.8680963407537,29.));
#1896=CARTESIAN_POINT('',(72.4557413107979,54.4860963407537,29.));
#1897=CARTESIAN_POINT('',(72.4557413107979,62.8680963407537,29.));
#1898=CARTESIAN_POINT('',(72.4557413107979,54.4860963407537,29.));
#1899=CARTESIAN_POINT('Origin',(-12.794258689202,14.2365963407537,28.75));
#1900=CARTESIAN_POINT('',(-15.594258689202,14.2365963407537,29.));
#1901=CARTESIAN_POINT('Origin',(-12.794258689202,14.2365963407537,29.));
#1902=CARTESIAN_POINT('',(-15.094258689202,14.2365963407537,28.5));
#1903=CARTESIAN_POINT('',(-15.344258689202,14.2365963407537,28.75));
#1904=CARTESIAN_POINT('Origin',(-12.794258689202,14.2365963407537,28.5));
#1905=CARTESIAN_POINT('Origin',(-12.794258689202,14.2365963407537,29.));
#1906=CARTESIAN_POINT('',(-15.094258689202,14.2365963407537,23.6));
#1907=CARTESIAN_POINT('',(-15.094258689202,14.2365963407537,29.));
#1908=CARTESIAN_POINT('Origin',(-12.794258689202,14.2365963407537,23.6));
#1909=CARTESIAN_POINT('Origin',(-13.0442586892018,14.6775963407537,29.));
#1910=CARTESIAN_POINT('',(-9.54425868920175,18.8685963407537,29.));
#1911=CARTESIAN_POINT('',(-9.54425868920175,10.4865963407537,29.));
#1912=CARTESIAN_POINT('',(-9.54425868920175,18.8685963407537,29.));
#1913=CARTESIAN_POINT('Origin',(-12.794258689202,57.7365963407537,28.75));
#1914=CARTESIAN_POINT('',(-15.094258689202,57.7365963407537,28.5));
#1915=CARTESIAN_POINT('',(-15.344258689202,57.7365963407537,28.75));
#1916=CARTESIAN_POINT('Origin',(-12.794258689202,57.7365963407537,28.5));
#1917=CARTESIAN_POINT('Origin',(-12.794258689202,57.7365963407537,29.));
#1918=CARTESIAN_POINT('',(-15.094258689202,57.7365963407537,23.6));
#1919=CARTESIAN_POINT('',(-15.094258689202,57.7365963407537,29.));
#1920=CARTESIAN_POINT('Origin',(-12.794258689202,57.7365963407537,23.6));
#1921=CARTESIAN_POINT('Origin',(31.4557413107981,35.9865963407537,23.6));
#1922=CARTESIAN_POINT('Origin',(31.4557413107981,35.9865963407537,23.6));
#1923=CARTESIAN_POINT('Origin',(31.4557413107981,35.9865963407537,23.6));
#1924=CARTESIAN_POINT('Origin',(31.4557413107981,35.9865963407537,23.6));
#1925=CARTESIAN_POINT('Origin',(72.4557413107979,54.4860963407537,3.));
#1926=CARTESIAN_POINT('',(72.4557413107979,54.4860963407537,3.));
#1927=CARTESIAN_POINT('',(51.9557413107972,54.4860963407537,3.));
#1928=CARTESIAN_POINT('',(72.4557413107979,54.4860963407537,3.));
#1929=CARTESIAN_POINT('Origin',(72.4557413107979,62.8680963407537,3.));
#1930=CARTESIAN_POINT('',(72.4557413107979,62.8680963407537,3.));
#1931=CARTESIAN_POINT('',(72.4557413107979,49.3977213407537,3.));
#1932=CARTESIAN_POINT('',(72.4557413107979,62.8680963407537,3.));
#1933=CARTESIAN_POINT('Origin',(31.4557413107966,35.9273463407537,3.));
#1934=CARTESIAN_POINT('',(-9.54425868920175,62.8680963407537,3.));
#1935=CARTESIAN_POINT('',(7.4557413107974,62.8680963407537,3.));
#1936=CARTESIAN_POINT('',(-9.54425868920175,54.4860963407537,3.));
#1937=CARTESIAN_POINT('',(-9.54425868920175,45.2067213407537,3.));
#1938=CARTESIAN_POINT('',(7.4557413107974,54.4860963407537,3.));
#1939=CARTESIAN_POINT('',(-9.54425868920175,18.8685963407537,3.));
#1940=CARTESIAN_POINT('',(10.9557413107974,18.8685963407537,3.));
#1941=CARTESIAN_POINT('',(-9.54425868920175,23.2069713407537,3.));
#1942=CARTESIAN_POINT('',(72.4557413107979,18.8685963407537,3.));
#1943=CARTESIAN_POINT('',(72.4557413107979,27.3979713407537,3.));
#1944=CARTESIAN_POINT('',(55.4557413107957,18.8685963407537,3.));
#1945=CARTESIAN_POINT('Origin',(72.4557413107979,18.8685963407537,3.));
#1946=CARTESIAN_POINT('',(72.4557413107979,18.8685963407537,3.));
#1947=CARTESIAN_POINT('Origin',(79.4557413107948,18.8685963407537,3.));
#1948=CARTESIAN_POINT('Origin',(-9.54425868920175,54.4860963407537,3.));
#1949=CARTESIAN_POINT('',(-9.54425868920175,62.8680963407537,3.));
#1950=CARTESIAN_POINT('',(-9.54425868920175,54.4860963407537,3.));
#1951=CARTESIAN_POINT('Origin',(-16.5442586892018,54.4860963407537,3.));
#1952=CARTESIAN_POINT('Origin',(-9.54425868920175,18.8685963407537,3.));
#1953=CARTESIAN_POINT('',(-9.54425868920175,18.8685963407537,3.));
#1954=CARTESIAN_POINT('Origin',(-9.54425868920175,10.4865963407537,3.));
#1955=CARTESIAN_POINT('Origin',(64.0719638768699,7.31443740308286,7.));
#1956=CARTESIAN_POINT('',(-6.4890125066042,7.31443740308286,7.));
#1957=CARTESIAN_POINT('',(-6.4890125066042,7.31443740308286,7.));
#1958=CARTESIAN_POINT('',(64.0719638768699,7.31443740308286,7.));
#1959=CARTESIAN_POINT('',(47.3289756851329,7.31443740308286,7.));
#1960=CARTESIAN_POINT('',(64.0719638768699,7.31443740308286,7.));
#1961=CARTESIAN_POINT('Origin',(64.0719638768699,15.6946199189763,7.));
#1962=CARTESIAN_POINT('',(64.0719638768699,12.4595742900029,7.));
#1963=CARTESIAN_POINT('Origin',(30.5859874933958,9.22452866102956,7.));
#1964=CARTESIAN_POINT('',(-6.4890125066042,2.75443740308286,7.));
#1965=CARTESIAN_POINT('',(-6.4890125066042,8.26948303205622,7.));
#1966=CARTESIAN_POINT('',(67.6609874933958,2.75443740308286,7.));
#1967=CARTESIAN_POINT('',(12.0484874933958,2.75443740308286,7.));
#1968=CARTESIAN_POINT('',(67.6609874933958,5.98948303205621,7.));
#1969=CARTESIAN_POINT('Origin',(67.6609874933958,2.75443740308286,7.));
#1970=CARTESIAN_POINT('',(67.6609874933958,2.75443740308286,7.));
#1971=CARTESIAN_POINT('Origin',(-6.4890125066042,2.75443740308286,7.));
#1972=CARTESIAN_POINT('',(-6.4890125066042,2.75443740308286,7.));
#1973=CARTESIAN_POINT('Origin',(-6.4890125066042,7.31443740308286,7.));
#1974=CARTESIAN_POINT('Origin',(-16.5442586892018,62.8680963407537,3.));
#1975=CARTESIAN_POINT('Origin',(87.4557413107949,0.986596340753678,3.));
#1976=UNCERTAINTY_MEASURE_WITH_UNIT(LENGTH_MEASURE(0.01),#1980,
'DISTANCE_ACCURACY_VALUE',
'Maximum model space distance between geometric entities at asserted c
onnectivities');
#1977=UNCERTAINTY_MEASURE_WITH_UNIT(LENGTH_MEASURE(0.01),#1980,
'DISTANCE_ACCURACY_VALUE',
'Maximum model space distance between geometric entities at asserted c
onnectivities');
#1978=(
GEOMETRIC_REPRESENTATION_CONTEXT(3)
GLOBAL_UNCERTAINTY_ASSIGNED_CONTEXT((#1976))
GLOBAL_UNIT_ASSIGNED_CONTEXT((#1980,#1981,#1982))
REPRESENTATION_CONTEXT('','3D')
);
#1979=(
GEOMETRIC_REPRESENTATION_CONTEXT(3)
GLOBAL_UNCERTAINTY_ASSIGNED_CONTEXT((#1977))
GLOBAL_UNIT_ASSIGNED_CONTEXT((#1980,#1981,#1982))
REPRESENTATION_CONTEXT('','3D')
);
#1980=(
LENGTH_UNIT()
NAMED_UNIT(*)
SI_UNIT(.MILLI.,.METRE.)
);
#1981=(
NAMED_UNIT(*)
PLANE_ANGLE_UNIT()
SI_UNIT($,.RADIAN.)
);
#1982=(
NAMED_UNIT(*)
SI_UNIT($,.STERADIAN.)
SOLID_ANGLE_UNIT()
);
#1983=SHAPE_DEFINITION_REPRESENTATION(#1984,#1985);
#1984=PRODUCT_DEFINITION_SHAPE('',$,#1987);
#1985=SHAPE_REPRESENTATION('',(#1188),#1978);
#1986=PRODUCT_DEFINITION_CONTEXT('part definition',#1991,'design');
#1987=PRODUCT_DEFINITION('2026-08-29-21-56-22-098','BLARE-Alam-Clock',#1988,
#1986);
#1988=PRODUCT_DEFINITION_FORMATION('',$,#1993);
#1989=PRODUCT_RELATED_PRODUCT_CATEGORY('BLARE-Alam-Clock',
'BLARE-Alam-Clock',(#1993));
#1990=APPLICATION_PROTOCOL_DEFINITION('international standard',
'automotive_design',2009,#1991);
#1991=APPLICATION_CONTEXT(
'Core Data for Automotive Mechanical Design Process');
#1992=PRODUCT_CONTEXT('part definition',#1991,'mechanical');
#1993=PRODUCT('2026-08-29-21-56-22-098','BLARE-Alam-Clock',$,(#1992));
#1994=PRESENTATION_STYLE_ASSIGNMENT((#1997));
#1995=PRESENTATION_STYLE_ASSIGNMENT((#1998));
#1996=PRESENTATION_STYLE_ASSIGNMENT((#1999));
#1997=SURFACE_STYLE_USAGE(.BOTH.,#2000);
#1998=SURFACE_STYLE_USAGE(.BOTH.,#2001);
#1999=SURFACE_STYLE_USAGE(.BOTH.,#2002);
#2000=SURFACE_SIDE_STYLE('',(#2003));
#2001=SURFACE_SIDE_STYLE('',(#2004));
#2002=SURFACE_SIDE_STYLE('',(#2005));
#2003=SURFACE_STYLE_FILL_AREA(#2006);
#2004=SURFACE_STYLE_FILL_AREA(#2007);
#2005=SURFACE_STYLE_FILL_AREA(#2008);
#2006=FILL_AREA_STYLE('Steel - Satin',(#2009));
#2007=FILL_AREA_STYLE('ABS (White)',(#2010));
#2008=FILL_AREA_STYLE('ABS (White) (1)',(#2011));
#2009=FILL_AREA_STYLE_COLOUR('Steel - Satin',#2012);
#2010=FILL_AREA_STYLE_COLOUR('ABS (White)',#2013);
#2011=FILL_AREA_STYLE_COLOUR('ABS (White) (1)',#2014);
#2012=COLOUR_RGB('Steel - Satin',0.627450980392157,0.627450980392157,0.627450980392157);
#2013=COLOUR_RGB('ABS (White)',0.380392156862745,0.776470588235294,0.501960784313725);
#2014=COLOUR_RGB('ABS (White) (1)',0.76078431372549,0.882352941176471,0.537254901960784);
ENDSEC;
END-ISO-10303-21;
